<?xml version="1.0" encoding="UTF-8" standalone="no"?>
<!-- Created with Inkscape (http://www.inkscape.org/) -->

<svg
   width="434.81076mm"
   height="109.90238mm"
   viewBox="0 0 434.81076 109.90238"
   version="1.1"
   id="svg1"
   inkscape:version="1.3.2 (091e20e, 2023-11-25, custom)"
   sodipodi:docname="dessin.svg"
   inkscape:export-filename="dessinexp.svg"
   inkscape:export-xdpi="46.222836"
   inkscape:export-ydpi="46.222836"
   xmlns:inkscape="http://www.inkscape.org/namespaces/inkscape"
   xmlns:sodipodi="http://sodipodi.sourceforge.net/DTD/sodipodi-0.dtd"
   xmlns="http://www.w3.org/2000/svg"
   xmlns:svg="http://www.w3.org/2000/svg">
  <sodipodi:namedview
     id="namedview1"
     pagecolor="#ffffff"
     bordercolor="#666666"
     borderopacity="1.0"
     inkscape:showpageshadow="2"
     inkscape:pageopacity="0.0"
     inkscape:pagecheckerboard="0"
     inkscape:deskcolor="#d1d1d1"
     inkscape:document-units="mm"
     inkscape:zoom="0.37640641"
     inkscape:cx="961.72644"
     inkscape:cy="158.07382"
     inkscape:window-width="1366"
     inkscape:window-height="745"
     inkscape:window-x="-8"
     inkscape:window-y="-8"
     inkscape:window-maximized="1"
     inkscape:current-layer="layer1"
     showgrid="false"
     showguides="true">
    <sodipodi:guide
       position="-121.30776,80.080039"
       orientation="1,0"
       id="guide7"
       inkscape:locked="false" />
    <sodipodi:guide
       position="78.50191,134.75433"
       orientation="0,-1"
       id="guide8"
       inkscape:locked="false" />
    <sodipodi:guide
       position="121.74431,136.74248"
       orientation="0,-1"
       id="guide9"
       inkscape:locked="false" />
  </sodipodi:namedview>
  <defs
     id="defs1">
    <rect
       x="-448.57211"
       y="154.39226"
       width="415.19"
       height="125.18291"
       id="rect65" />
    <rect
       x="-239.93391"
       y="118.92377"
       width="152.30588"
       height="104.3191"
       id="rect57" />
    <rect
       x="134.98947"
       y="47.209435"
       width="126.13771"
       height="61.962383"
       id="rect52" />
    <rect
       x="19.916479"
       y="367.34842"
       width="114.33535"
       height="49.422375"
       id="rect42" />
    <rect
       x="604.13324"
       y="230.146"
       width="141.6283"
       height="58.274143"
       id="rect34" />
    <rect
       x="120.48856"
       y="194.55511"
       width="192.46873"
       height="73.023369"
       id="rect33" />
    <rect
       x="180.58664"
       y="168.68752"
       width="124.59078"
       height="85.393684"
       id="rect2" />
    <rect
       x="180.15749"
       y="242.51968"
       width="152.44093"
       height="72.260963"
       id="rect18" />
    <rect
       x="227.67154"
       y="215.79303"
       width="168.27898"
       height="194.01575"
       id="rect17" />
    <rect
       x="227.67154"
       y="215.79303"
       width="168.27898"
       height="194.01575"
       id="rect19" />
    <rect
       x="227.67154"
       y="215.79303"
       width="168.27898"
       height="194.01575"
       id="rect20" />
    <rect
       x="227.67154"
       y="215.79303"
       width="168.27898"
       height="194.01575"
       id="rect21" />
    <rect
       x="227.67154"
       y="215.79303"
       width="168.27898"
       height="194.01575"
       id="rect22" />
    <rect
       x="227.67154"
       y="215.79303"
       width="168.27898"
       height="194.01575"
       id="rect23" />
    <rect
       x="227.67154"
       y="215.79303"
       width="168.27898"
       height="194.01575"
       id="rect24" />
    <rect
       x="227.67154"
       y="215.79303"
       width="168.27898"
       height="194.01575"
       id="rect25" />
    <rect
       x="227.67154"
       y="215.79303"
       width="168.27898"
       height="194.01575"
       id="rect26" />
    <rect
       x="227.67154"
       y="215.79303"
       width="168.27898"
       height="194.01575"
       id="rect27" />
    <rect
       x="227.67154"
       y="215.79303"
       width="168.27898"
       height="194.01575"
       id="rect29" />
    <rect
       x="120.48856"
       y="194.55511"
       width="192.46873"
       height="73.023369"
       id="rect33-7" />
    <rect
       x="120.48856"
       y="194.55511"
       width="192.46873"
       height="73.023369"
       id="rect33-4" />
    <rect
       x="120.48856"
       y="194.55511"
       width="192.46873"
       height="73.023369"
       id="rect33-4-6" />
    <rect
       x="120.48856"
       y="194.55511"
       width="192.46873"
       height="73.023369"
       id="rect35" />
    <rect
       x="120.48856"
       y="194.55511"
       width="192.46873"
       height="73.023369"
       id="rect36" />
    <rect
       x="120.48856"
       y="194.55511"
       width="192.46873"
       height="73.023369"
       id="rect37" />
    <rect
       x="120.48856"
       y="194.55511"
       width="192.46873"
       height="73.023369"
       id="rect38" />
    <rect
       x="120.48856"
       y="194.55511"
       width="192.46873"
       height="73.023369"
       id="rect39" />
    <rect
       x="120.48856"
       y="194.55511"
       width="192.46873"
       height="73.023369"
       id="rect40" />
    <rect
       x="120.48856"
       y="194.55511"
       width="192.46873"
       height="73.023369"
       id="rect41" />
    <rect
       x="19.916479"
       y="367.34842"
       width="114.33535"
       height="49.422375"
       id="rect43" />
    <rect
       x="120.48856"
       y="194.55511"
       width="192.46873"
       height="73.023369"
       id="rect44" />
    <rect
       x="120.48856"
       y="194.55511"
       width="192.46873"
       height="73.023369"
       id="rect45" />
    <rect
       x="120.48856"
       y="194.55511"
       width="192.46873"
       height="73.023369"
       id="rect46" />
    <rect
       x="19.916479"
       y="367.34842"
       width="114.33535"
       height="49.422375"
       id="rect47" />
    <rect
       x="120.48856"
       y="194.55511"
       width="192.46873"
       height="73.023369"
       id="rect36-8" />
    <rect
       x="604.13324"
       y="230.146"
       width="141.6283"
       height="58.274143"
       id="rect34-5" />
    <rect
       x="-239.93391"
       y="118.92377"
       width="152.30588"
       height="104.3191"
       id="rect59" />
    <rect
       x="604.13324"
       y="230.146"
       width="141.6283"
       height="58.274143"
       id="rect60" />
    <rect
       x="-239.93391"
       y="118.92377"
       width="152.30588"
       height="104.3191"
       id="rect62" />
    <rect
       x="604.13324"
       y="230.146"
       width="141.6283"
       height="58.274143"
       id="rect63" />
    <rect
       x="604.13324"
       y="230.146"
       width="141.6283"
       height="58.274143"
       id="rect63-3" />
    <rect
       x="604.13324"
       y="230.146"
       width="141.6283"
       height="58.274143"
       id="rect72" />
    <rect
       x="-239.93391"
       y="118.92377"
       width="152.30588"
       height="104.3191"
       id="rect75" />
    <rect
       x="604.13324"
       y="230.146"
       width="250.80013"
       height="115.81064"
       id="rect76" />
    <rect
       x="604.13324"
       y="230.146"
       width="141.6283"
       height="58.274143"
       id="rect77" />
    <rect
       x="-448.57211"
       y="154.39226"
       width="415.19"
       height="125.18291"
       id="rect81" />
    <rect
       x="-448.57211"
       y="154.39226"
       width="415.19"
       height="125.18291"
       id="rect82" />
    <rect
       x="-448.57211"
       y="154.39226"
       width="415.19"
       height="125.18291"
       id="rect83" />
    <rect
       x="-239.93391"
       y="118.92377"
       width="223.69164"
       height="228.30489"
       id="rect5" />
    <rect
       x="604.13324"
       y="230.146"
       width="250.80013"
       height="115.81064"
       id="rect6" />
    <rect
       x="604.13324"
       y="230.146"
       width="391.47845"
       height="236.73854"
       id="rect7" />
  </defs>
  <g
     inkscape:label="Calque 1"
     inkscape:groupmode="layer"
     id="layer1"
     transform="translate(238.20477,-47.042857)">
    <path
       id="rect84"
       style="fill:#34362e;stroke:#cf0000;stroke-width:0.135289;stroke-linecap:round"
       d="M -28.024931,142.24229 H 8.7235856 c 1.4074114,0 2.5404544,1.13305 2.5404544,2.54046 v 8.79798 c 0,1.40741 -1.133043,2.54046 -2.5404544,2.54046 H -28.024931 c -1.407412,0 -2.540455,-1.13305 -2.540455,-2.54046 v -8.79798 c 0,-1.40741 1.133043,-2.54046 2.540455,-2.54046 z" />
    <path
       id="rect1"
       style="opacity:1;fill:#37a75d;stroke:#cf0000;stroke-width:0.2;stroke-linecap:round"
       d="m 56.281775,47.142857 h 22.579306 c 3.612008,0 6.51987,2.907862 6.51987,6.519869 v 22.579306 c 0,3.612008 -2.907862,6.51987 -6.51987,6.51987 H 56.281775 c -3.612007,0 -6.519869,-2.907862 -6.519869,-6.51987 V 53.662726 c 0,-3.612007 2.907862,-6.519869 6.519869,-6.519869 z" />
    <path
       id="use10"
       style="fill:#449a61;stroke:#cf0000;stroke-width:0.2;stroke-linecap:round"
       d="m 93.323443,47.142857 h 22.579307 c 3.61201,0 6.51987,2.907862 6.51987,6.519869 v 22.579306 c 0,3.612008 -2.90786,6.51987 -6.51987,6.51987 H 93.323443 c -3.612007,0 -6.519869,-2.907862 -6.519869,-6.51987 V 53.662726 c 0,-3.612007 2.907862,-6.519869 6.519869,-6.519869 z" />
    <path
       id="use11"
       style="fill:#6d863b;stroke:#cf0000;stroke-width:0.2;stroke-linecap:round"
       d="m 130.36512,47.142857 h 22.57931 c 3.61201,0 6.51987,2.907862 6.51987,6.519869 v 22.579306 c 0,3.612008 -2.90786,6.51987 -6.51987,6.51987 h -22.57931 c -3.61201,0 -6.51987,-2.907862 -6.51987,-6.51987 V 53.662726 c 0,-3.612007 2.90786,-6.519869 6.51987,-6.519869 z" />
    <path
       id="use12"
       style="fill:#449a61;stroke:#449a61;stroke-width:0.2;stroke-linecap:round"
       d="m 56.281775,84.184525 h 22.579306 c 3.612008,0 6.51987,2.907861 6.51987,6.519869 V 113.2837 c 0,3.61201 -2.907862,6.51987 -6.51987,6.51987 H 56.281775 c -3.612007,0 -6.519869,-2.90786 -6.519869,-6.51987 V 90.704394 c 0,-3.612008 2.907862,-6.519869 6.519869,-6.519869 z" />
    <path
       id="use13"
       style="fill:#37a75d;stroke-width:0.2;stroke-linecap:round"
       d="m 93.323443,84.184525 h 22.579307 c 3.61201,0 6.51987,2.907861 6.51987,6.519869 V 113.2837 c 0,3.61201 -2.90786,6.51987 -6.51987,6.51987 H 93.323443 c -3.612007,0 -6.519869,-2.90786 -6.519869,-6.51987 V 90.704394 c 0,-3.612008 2.907862,-6.519869 6.519869,-6.519869 z" />
    <path
       id="use14"
       style="fill:#449a61;stroke:#cf0000;stroke-width:0.2;stroke-linecap:round"
       d="m 130.36512,84.184525 h 22.57931 c 3.61201,0 6.51987,2.907861 6.51987,6.519869 V 113.2837 c 0,3.61201 -2.90786,6.51987 -6.51987,6.51987 h -22.57931 c -3.61201,0 -6.51987,-2.90786 -6.51987,-6.51987 V 90.704394 c 0,-3.612008 2.90786,-6.519869 6.51987,-6.519869 z" />
    <path
       id="use15"
       style="fill:#37a75d;stroke:#449a61;stroke-width:0.2;stroke-linecap:round"
       d="m 56.281775,121.2262 h 22.579306 c 3.612008,0 6.51987,2.90786 6.51987,6.51987 v 22.5793 c 0,3.61201 -2.907862,6.51987 -6.51987,6.51987 H 56.281775 c -3.612007,0 -6.519869,-2.90786 -6.519869,-6.51987 v -22.5793 c 0,-3.61201 2.907862,-6.51987 6.519869,-6.51987 z" />
    <path
       id="use16"
       style="fill:#4a9463;stroke:#cf0000;stroke-width:0.2;stroke-linecap:round"
       d="m 93.323443,121.2262 h 22.579307 c 3.61201,0 6.51987,2.90786 6.51987,6.51987 v 22.5793 c 0,3.61201 -2.90786,6.51987 -6.51987,6.51987 H 93.323443 c -3.612007,0 -6.519869,-2.90786 -6.519869,-6.51987 v -22.5793 c 0,-3.61201 2.907862,-6.51987 6.519869,-6.51987 z" />
    <path
       id="use17"
       style="fill:#6d863b;stroke:#cf0000;stroke-width:0.2;stroke-linecap:round"
       d="m 130.36512,121.2262 h 22.57931 c 3.61201,0 6.51987,2.90786 6.51987,6.51987 v 22.5793 c 0,3.61201 -2.90786,6.51987 -6.51987,6.51987 h -22.57931 c -3.61201,0 -6.51987,-2.90786 -6.51987,-6.51987 v -22.5793 c 0,-3.61201 2.90786,-6.51987 6.51987,-6.51987 z" />
    <path
       d="m 229.85938,219.94662 h 12.50001 v 1.11979 l -7.0573,18.32034 h -2.7474 l 6.64064,-17.22659 h -9.33595 z"
       id="text17"
       style="font-size:26.6667px;line-height:1.25;white-space:pre"
       transform="matrix(0.26458333,0,0,0.26458333,-8.2703042,-8.1425542)"
       aria-label="7&#10;" />
    <path
       d="m 236.14845,230.15497 q -1.875,0 -2.95573,1.0026 -1.06771,1.00261 -1.06771,2.76042 0,1.75782 1.06771,2.76042 1.08073,1.00261 2.95573,1.00261 1.875,0 2.95573,-1.00261 1.08073,-1.01562 1.08073,-2.76042 0,-1.75781 -1.08073,-2.76042 -1.06771,-1.0026 -2.95573,-1.0026 z m -2.63021,-1.1198 q -1.69271,-0.41666 -2.64324,-1.57552 -0.9375,-1.15886 -0.9375,-2.82552 0,-2.33074 1.65365,-3.6849 1.66667,-1.35417 4.5573,-1.35417 2.90365,0 4.5573,1.35417 1.65364,1.35416 1.65364,3.6849 0,1.66666 -0.95052,2.82552 -0.9375,1.15886 -2.61719,1.57552 1.90104,0.44271 2.95573,1.73178 1.06771,1.28906 1.06771,3.15104 0,2.82553 -1.73177,4.33594 -1.71875,1.51042 -4.9349,1.51042 -3.21615,0 -4.94792,-1.51042 -1.71876,-1.51041 -1.71876,-4.33594 0,-1.86198 1.06771,-3.15104 1.06771,-1.28907 2.96876,-1.73178 z m -0.96355,-4.15365 q 0,1.51042 0.9375,2.35678 0.95053,0.84635 2.65626,0.84635 1.69271,0 2.64323,-0.84635 0.96354,-0.84636 0.96354,-2.35678 0,-1.51042 -0.96354,-2.35677 -0.95052,-0.84636 -2.64323,-0.84636 -1.70573,0 -2.65626,0.84636 -0.9375,0.84635 -0.9375,2.35677 z"
       id="text19"
       style="font-size:26.6667px;line-height:1.25;white-space:pre"
       transform="matrix(0.26458333,0,0,0.26458333,28.771364,-8.1425542)"
       aria-label="8&#10;" />
    <path
       d="m 230.60157,238.9831 v -2.39583 q 0.98958,0.46875 2.00521,0.71614 1.01562,0.2474 1.99219,0.2474 2.60417,0 3.97136,-1.7448 1.38021,-1.75781 1.57552,-5.32552 -0.75521,1.11979 -1.91407,1.71875 -1.15885,0.59896 -2.5651,0.59896 -2.91667,0 -4.6224,-1.75782 -1.69272,-1.77083 -1.69272,-4.83073 0,-2.9948 1.77084,-4.80469 1.77084,-1.8099 4.71355,-1.8099 3.3724,0 5.14323,2.59115 1.78386,2.57812 1.78386,7.50001 0,4.59636 -2.1875,7.34375 -2.17448,2.73438 -5.85939,2.73438 -0.98958,0 -2.00521,-0.19531 -1.01562,-0.19531 -2.10937,-0.58594 z m 5.23438,-8.2422 q 1.77083,0 2.79948,-1.21093 1.04167,-1.21094 1.04167,-3.32032 0,-2.09636 -1.04167,-3.3073 -1.02865,-1.22396 -2.79948,-1.22396 -1.77084,0 -2.81251,1.22396 -1.02864,1.21094 -1.02864,3.3073 0,2.10938 1.02864,3.32032 1.04167,1.21093 2.81251,1.21093 z"
       id="text20"
       style="font-size:26.6667px;line-height:1.25;white-space:pre"
       transform="matrix(0.26458333,0,0,0.26458333,65.813033,-8.1425542)"
       aria-label="9&#10;" />
    <path
       d="m 237.75001,222.23829 -6.64063,10.37762 h 6.64063 z m -0.6901,-2.29167 h 3.30729 v 12.66929 h 2.77344 v 2.1875 h -2.77344 v 4.58334 h -2.61719 v -4.58334 h -8.77605 v -2.53907 z"
       id="text21"
       style="font-size:26.6667px;line-height:1.25;white-space:pre"
       transform="matrix(0.26458333,0,0,0.26458333,-8.2703042,28.899114)"
       aria-label="4&#10;" />
    <path
       d="m 230.54948,219.94662 h 10.32554 v 2.21354 h -7.91668 v 4.76564 q 0.57292,-0.19532 1.14583,-0.28646 0.57292,-0.10417 1.14584,-0.10417 3.25521,0 5.15626,1.78386 1.90104,1.78385 1.90104,4.83073 0,3.13803 -1.95313,4.88282 -1.95312,1.73177 -5.50782,1.73177 -1.22396,0 -2.5,-0.20833 -1.26302,-0.20833 -2.61719,-0.625 v -2.64323 q 1.17188,0.63802 2.42188,0.95052 1.25,0.3125 2.64323,0.3125 2.25261,0 3.56771,-1.1849 1.31511,-1.1849 1.31511,-3.21615 0,-2.03125 -1.31511,-3.21615 -1.3151,-1.1849 -3.56771,-1.1849 -1.05469,0 -2.10938,0.23438 -1.04167,0.23437 -2.13542,0.72917 z"
       id="text22"
       style="font-size:26.6667px;line-height:1.25;white-space:pre"
       transform="matrix(0.26458333,0,0,0.26458333,28.771364,28.899114)"
       aria-label="5&#10;" />
    <path
       d="m 236.47397,228.61851 q -1.77084,0 -2.8125,1.21093 -1.02865,1.21094 -1.02865,3.32032 0,2.09636 1.02865,3.32032 1.04166,1.21094 2.8125,1.21094 1.77084,0 2.79948,-1.21094 1.04167,-1.22396 1.04167,-3.32032 0,-2.10938 -1.04167,-3.32032 -1.02864,-1.21093 -2.79948,-1.21093 z m 5.22136,-8.2422 v 2.39583 q -0.98958,-0.46875 -2.00521,-0.71614 -1.00261,-0.2474 -1.99219,-0.2474 -2.60417,0 -3.98438,1.75782 -1.36719,1.75781 -1.5625,5.3125 0.76823,-1.13281 1.92708,-1.73177 1.15886,-0.61198 2.55209,-0.61198 2.92969,0 4.6224,1.78386 1.70573,1.77083 1.70573,4.83073 0,2.9948 -1.77083,4.8047 -1.77084,1.80989 -4.71355,1.80989 -3.3724,0 -5.15626,-2.57813 -1.78385,-2.59114 -1.78385,-7.5 0,-4.60939 2.1875,-7.34376 2.1875,-2.7474 5.8724,-2.7474 0.98959,0 1.99219,0.19531 1.01563,0.19531 2.10938,0.58594 z"
       id="text24"
       style="font-size:26.6667px;line-height:1.25;white-space:pre"
       transform="matrix(0.26458333,0,0,0.26458333,65.813033,28.899114)"
       aria-label="6&#10;" />
    <path
       d="m 238.4922,228.90496 q 1.88802,0.40365 2.94271,1.67969 1.06771,1.27605 1.06771,3.15105 0,2.87761 -1.97917,4.45313 -1.97917,1.57552 -5.625,1.57552 -1.22396,0 -2.52605,-0.24739 -1.28906,-0.23438 -2.66927,-0.71615 v -2.53907 q 1.09375,0.63803 2.39583,0.96355 1.30209,0.32552 2.72136,0.32552 2.47396,0 3.76303,-0.97656 1.30208,-0.97657 1.30208,-2.83855 0,-1.71875 -1.21094,-2.6823 -1.19792,-0.97656 -3.34636,-0.97656 h -2.26562 v -2.16146 h 2.36979 q 1.94011,0 2.96876,-0.76823 1.02864,-0.78125 1.02864,-2.23959 0,-1.49739 -1.06771,-2.29167 -1.05469,-0.80729 -3.03386,-0.80729 -1.08073,0 -2.31771,0.23438 -1.23698,0.23437 -2.72135,0.72916 v -2.34375 q 1.49739,-0.41667 2.79948,-0.625 1.3151,-0.20833 2.47396,-0.20833 2.9948,0 4.73959,1.36719 1.74479,1.35416 1.74479,3.67188 0,1.61458 -0.92448,2.73437 -0.92448,1.10678 -2.63021,1.53646 z"
       id="text25"
       style="font-size:26.6667px;line-height:1.25;white-space:pre"
       transform="matrix(0.26458333,0,0,0.26458333,65.813033,65.940783)"
       aria-label="3&#10;" />
    <path
       d="m 232.78907,237.1732 h 9.1797 v 2.21355 H 229.625 v -2.21355 q 1.4974,-1.54948 4.07553,-4.15365 2.59115,-2.61719 3.25521,-3.3724 1.26302,-1.41927 1.75782,-2.39583 0.50781,-0.98959 0.50781,-1.94011 0,-1.54948 -1.09375,-2.52604 -1.08073,-0.97657 -2.82553,-0.97657 -1.23698,0 -2.61719,0.42969 -1.36719,0.42969 -2.92969,1.30208 v -2.65625 q 1.58854,-0.63802 2.96875,-0.96354 1.38021,-0.32552 2.52605,-0.32552 3.02084,0 4.81771,1.51042 1.79688,1.51041 1.79688,4.03646 0,1.19792 -0.45573,2.27865 -0.44271,1.06771 -1.6276,2.52604 -0.32553,0.37761 -2.07032,2.18751 -1.74479,1.79687 -4.92188,5.03906 z"
       id="text26"
       style="font-size:26.6667px;line-height:1.25;white-space:pre"
       transform="matrix(0.26458333,0,0,0.26458333,28.771364,65.940783)"
       aria-label="2&#10;" />
    <path
       d="m 230.97917,237.1732 h 4.29688 v -14.83074 l -4.67448,0.9375 v -2.39584 l 4.64844,-0.9375 h 2.63021 v 17.22658 h 4.29688 v 2.21355 h -11.19793 z"
       id="text27"
       style="font-size:26.6667px;line-height:1.25;white-space:pre"
       transform="matrix(0.26458333,0,0,0.26458333,-8.2703038,65.940783)"
       aria-label="1&#10;" />
    <path
       style="fill:#000000;fill-opacity:1;stroke:#000000;stroke-width:0.0773255px;stroke-linecap:butt;stroke-linejoin:miter;stroke-opacity:1"
       d="m 146.26738,101.99479 c -3.12341,1.4555 -6.25449,2.87265 -9.27909,4.8222 v -9.644393 c 2.96709,1.986534 6.04953,3.356243 9.27909,4.822193 z"
       id="path33"
       sodipodi:nodetypes="cccc" />
    <path
       style="fill:#000000;fill-opacity:1;stroke:#000000;stroke-width:0.0757428px;stroke-linecap:butt;stroke-linejoin:miter;stroke-opacity:1"
       d="m 63.146082,101.99482 c 2.995939,1.45593 5.999229,2.87351 8.900389,4.82364 v -9.64728 c -2.845998,1.987128 -5.802638,3.35725 -8.900389,4.82364 z"
       id="path1"
       sodipodi:nodetypes="cccc" />
    <path
       style="fill:#000000;fill-opacity:1;stroke:#000000;stroke-width:0.0757428px;stroke-linecap:butt;stroke-linejoin:miter;stroke-opacity:1"
       d="m 104.61233,60.527035 c -1.45594,2.995938 -2.87351,5.999229 -4.823641,8.900385 h 9.647271 c -1.98712,-2.845992 -3.35725,-5.802635 -4.82363,-8.900385 z"
       id="path1-6"
       sodipodi:nodetypes="cccc" />
    <path
       style="fill:#000000;fill-opacity:1;stroke:#000000;stroke-width:0.0786884px;stroke-linecap:butt;stroke-linejoin:miter;stroke-opacity:1"
       d="m 104.61389,143.63315 c 1.51255,-3.11243 2.98525,-6.23252 5.01121,-9.24649 H 99.602691 c 2.064389,2.95666 3.487799,6.02828 5.011199,9.24649 z"
       id="path2"
       sodipodi:nodetypes="cccc" />
    <path
       d="m 208.11196,191.91665 h -15.78124 v 9.66146 h 15.78124 q 1.71875,0 2.34375,-0.625 0.625,-0.625 0.625,-2.1875 v -4.01042 q 0,-1.5625 -0.65104,-2.1875 -0.625,-0.65104 -2.31771,-0.65104 z m -20.39061,23.95832 v -27.52602 h 22.18749 q 3.09895,0 4.45312,1.27604 1.38021,1.25 1.38021,4.0625 v 6.14582 q 0,2.78646 -1.38021,4.0625 -1.35417,1.25 -4.45312,1.25 h -4.03646 l 12.57812,10.72916 h -6.82291 l -11.19791,-10.72916 h -8.09896 v 10.72916 z m 58.69788,-19.24478 h -15.85937 v 5.85937 h 14.5052 q 3.17709,0 4.32292,1.11979 1.17187,1.09375 1.17187,4.21875 v 2.70833 q 0,3.125 -1.14583,4.24479 -1.11979,1.09375 -4.34896,1.09375 h -13.74999 q -3.22916,0 -4.40104,-1.09375 -1.14583,-1.11979 -1.14583,-4.24479 v -0.625 l 3.90625,-0.80729 v 3.35938 h 17.05728 v -6.35417 h -14.55728 q -3.20313,0 -4.34896,-1.09375 -1.14583,-1.11979 -1.14583,-4.24479 v -2.13541 q 0,-3.09896 1.14583,-4.21875 1.14583,-1.14583 4.34896,-1.14583 h 12.57811 q 3.15104,0 4.34896,1.09375 1.19792,1.09375 1.19792,3.85416 v 0.54688 l -3.88021,0.83333 z m 24.89582,0 v 19.24478 h -4.24479 v -19.24478 h -10.67707 v -3.35937 h 25.65102 v 3.35937 z"
       id="text2"
       style="font-size:53.3333px;line-height:1.25;font-family:'BankGothic Lt BT';-inkscape-font-specification:'BankGothic Lt BT';white-space:pre"
       transform="matrix(0.26458333,0,0,0.26458333,42.467028,48.518592)"
       aria-label="Rst" />
    <g
       id="g12"
       transform="matrix(0.63876934,0,0,0.63876934,51.292309,23.697678)">
      <path
         style="fill:#000000;fill-opacity:1;stroke:#000000;stroke-width:0.118576px;stroke-linecap:butt;stroke-linejoin:miter;stroke-opacity:1"
         d="m 141.46216,52.47161 c -2.27929,4.690173 -4.49851,9.391856 -7.55146,13.933646 h 15.1029 c -3.11086,-4.45543 -5.25581,-9.084085 -7.55144,-13.933646 z"
         id="path1-6-5"
         sodipodi:nodetypes="cccc" />
      <path
         id="rect11"
         style="opacity:1;stroke-width:0.2;stroke-linecap:round"
         d="m 140.18419,55.72261 h 2.55835 c 0.41991,0 0.75797,0.338053 0.75797,0.757966 v 19.596257 c 0,0.419913 -0.33806,0.757966 -0.75797,0.757966 h -2.55835 c -0.41991,0 -0.75797,-0.338053 -0.75797,-0.757966 V 56.480576 c 0,-0.419913 0.33806,-0.757966 0.75797,-0.757966 z" />
    </g>
    <g
       id="g13"
       transform="matrix(-0.67227592,0,0,-0.67227592,236.75717,182.45443)">
      <path
         style="fill:#000000;fill-opacity:1;stroke:#000000;stroke-width:0.118576px;stroke-linecap:butt;stroke-linejoin:miter;stroke-opacity:1"
         d="m 141.46216,52.47161 c -2.27929,4.690173 -4.49851,9.391856 -7.55146,13.933646 h 15.1029 c -3.11086,-4.45543 -5.25581,-9.084085 -7.55144,-13.933646 z"
         id="path12"
         sodipodi:nodetypes="cccc" />
      <path
         id="rect12"
         style="opacity:1;stroke-width:0.2;stroke-linecap:round"
         d="m 140.18419,55.72261 h 2.55835 c 0.41991,0 0.75797,0.338053 0.75797,0.757966 v 19.596257 c 0,0.419913 -0.33806,0.757966 -0.75797,0.757966 h -2.55835 c -0.41991,0 -0.75797,-0.338053 -0.75797,-0.757966 V 56.480576 c 0,-0.419913 0.33806,-0.757966 0.75797,-0.757966 z" />
    </g>
    <path
       style="fill:#000000;fill-opacity:1;stroke:#000000;stroke-width:0.0757428px;stroke-linecap:butt;stroke-linejoin:miter;stroke-opacity:1"
       d="m 62.795984,60.02271 c 0.912714,3.203493 1.858925,6.386879 2.340151,9.84927 l 7.189414,-6.432894 c -3.378593,-0.795881 -6.37117,-2.085639 -9.529565,-3.416376 z"
       id="path13"
       sodipodi:nodetypes="cccc" />
    <path
       style="fill:#000000;fill-opacity:1;stroke:#000000;stroke-width:0.0821054px;stroke-linecap:butt;stroke-linejoin:miter;stroke-opacity:1"
       d="m 62.641494,144.48625 c 3.15956,-1.74791 6.289676,-3.52627 9.828241,-4.88189 l -8.552876,-6.01766 c -0.01354,3.76265 -0.643104,7.23853 -1.275365,10.89955 z"
       id="path14"
       sodipodi:nodetypes="cccc" />
    <path
       d="m 125.24089,206.84637 v 9.59637 h 8.25522 v -9.59637 h 2.16146 v 8.63282 q 0,1.56251 -0.58594,2.1224 -0.57291,0.54688 -2.1875,0.54688 h -7.00522 q -1.61458,0 -2.20052,-0.5599 -0.57292,-0.5599 -0.57292,-2.10938 v -8.63282 z m 24.2318,1.65365 h -6.44532 v 3.56771 h 6.44532 q 0.71615,0 0.98959,-0.23437 0.28646,-0.2474 0.28646,-0.83334 v -1.43229 q 0,-0.58594 -0.27344,-0.82032 -0.27344,-0.24739 -1.00261,-0.24739 z m -8.58074,9.64845 v -11.3021 h 9.54428 q 1.31511,0 1.88803,0.50781 0.58594,0.50782 0.58594,1.67969 v 2.52605 q 0,1.14583 -0.58594,1.65365 -0.57292,0.50781 -1.88803,0.50781 h -7.40886 v 4.42709 z"
       id="text32-3"
       style="font-size:26.6667px;line-height:1.25;font-family:'BankGothic Lt BT';-inkscape-font-specification:'BankGothic Lt BT';white-space:pre"
       transform="matrix(0.26458333,0,0,0.26458333,105.1402,20.195575)"
       aria-label="up" />
    <path
       style="fill:#000000;fill-opacity:1;stroke:#000000;stroke-width:0.0602936px;stroke-linecap:butt;stroke-linejoin:miter;stroke-opacity:1"
       d="m -9.6862703,155.30024 c 1.517466,-1.82143 2.9949527,-3.64734 5.0274978,-5.41114 H -14.713758 c 2.071099,1.73027 3.499136,3.52781 5.0274877,5.41114 z"
       id="path32"
       sodipodi:nodetypes="cccc" />
    <path
       id="rect32"
       style="fill:#34362e;stroke:#cf0000;stroke-width:0.135289;stroke-linecap:round"
       d="M -28.024931,126.36729 H 8.7235856 c 1.4074114,0 2.5404544,1.13304 2.5404544,2.54045 v 8.79798 c 0,1.40742 -1.133043,2.54046 -2.5404544,2.54046 H -28.024931 c -1.407412,0 -2.540455,-1.13304 -2.540455,-2.54046 v -8.79798 c 0,-1.40741 1.133043,-2.54045 2.540455,-2.54045 z" />
    <path
       d="m 124.05599,218.14847 v -13.76304 h 13.09898 v 1.875 h -10.79429 v 4.50522 h 6.15887 v 1.83594 h -6.15887 v 5.54688 z m 19.10159,-1.91407 h 11.39324 v -9.97397 h -11.39324 z m -2.29167,-8.59376 q 0,-1.875 0.66406,-2.56511 0.67709,-0.6901 2.56511,-0.6901 h 9.51824 q 1.86198,0 2.52605,0.6901 0.67708,0.67709 0.67708,2.56511 v 7.25261 q 0,1.90105 -0.67708,2.57813 -0.66407,0.67709 -2.52605,0.67709 h -9.51824 q -1.88802,0 -2.56511,-0.69011 -0.66406,-0.6901 -0.66406,-2.56511 z m 33.12504,-1.47135 h -7.89063 v 4.83073 h 7.89063 q 0.85938,0 1.17188,-0.3125 0.3125,-0.3125 0.3125,-1.09375 v -2.00521 q 0,-0.78125 -0.32552,-1.09375 -0.3125,-0.32552 -1.15886,-0.32552 z m -10.19532,11.97918 v -13.76304 h 11.09376 q 1.54948,0 2.22657,0.63802 0.6901,0.625 0.6901,2.03125 v 3.07292 q 0,1.39323 -0.6901,2.03126 -0.67709,0.625 -2.22657,0.625 h -2.01823 l 6.28907,5.36459 h -3.41146 l -5.59897,-5.36459 h -4.04948 v 5.36459 z m 23.09898,0 -4.98698,-13.76304 h 2.31771 l 3.72396,10.93751 4.06251,-10.93751 h 1.40625 l 3.91928,10.93751 3.76302,-10.93751 h 2.0573 l -4.98699,13.76304 h -1.70573 l -3.81511,-10.40366 -3.94532,10.40366 z m 22.16149,-5.14324 h 7.40887 l -3.71094,-7.04428 z m -4.98698,5.14324 7.51303,-13.76304 h 2.46094 l 7.64324,13.76304 h -2.52605 l -1.75781,-3.38542 h -9.30991 l -1.75781,3.38542 z m 32.26567,-11.97918 h -7.89064 v 4.83073 h 7.89064 q 0.85937,0 1.17187,-0.3125 0.3125,-0.3125 0.3125,-1.09375 v -2.00521 q 0,-0.78125 -0.32552,-1.09375 -0.3125,-0.32552 -1.15885,-0.32552 z m -10.19533,11.97918 v -13.76304 h 11.09376 q 1.54948,0 2.22657,0.63802 0.6901,0.625 0.6901,2.03125 v 3.07292 q 0,1.39323 -0.6901,2.03126 -0.67709,0.625 -2.22657,0.625 h -2.01823 l 6.28907,5.36459 h -3.41146 l -5.59897,-5.36459 h -4.04948 v 5.36459 z m 27.57816,-11.88804 h -4.94792 v 9.97397 h 4.94792 q 3.34636,0 4.72657,-1.17187 1.38021,-1.17188 1.38021,-3.88022 0,-2.61719 -1.40625,-3.76302 -1.40626,-1.15886 -4.70053,-1.15886 z m 0.32552,-1.875 q 1.90104,0 3.15105,0.26042 1.26302,0.24739 2.13542,0.80729 1.32812,0.8724 2.08333,2.39584 0.76823,1.52343 0.76823,3.33333 0,1.92709 -0.75521,3.47657 -0.74219,1.53646 -2.09635,2.42188 -0.84636,0.54687 -2.10938,0.80729 -1.26302,0.26042 -3.17709,0.26042 h -7.57813 v -13.76304 z"
       id="text32"
       style="font-size:26.6667px;line-height:1.25;font-family:'BankGothic Lt BT';-inkscape-font-specification:'BankGothic Lt BT';white-space:pre"
       transform="matrix(0.26458333,0,0,0.26458333,-60.587855,80.624045)"
       aria-label="FORWARD" />
    <path
       d="M 135.82684,214.63284 V 213.487 q 0,-0.9375 -0.33854,-1.28906 -0.32552,-0.36458 -1.1849,-0.36458 h -7.94272 v 4.42708 h 7.94272 q 0.8724,0 1.19792,-0.35156 0.32552,-0.35156 0.32552,-1.27604 z m -0.11719,-5.82032 v -1.38021 q 0,-0.67709 -0.29947,-0.9375 -0.28646,-0.26042 -1.10678,-0.26042 h -7.94272 v 3.80209 h 7.94272 q 0.79427,0 1.09375,-0.27344 0.3125,-0.27344 0.3125,-0.95052 z m -11.65366,9.33595 v -13.76304 h 11.09377 q 1.54948,0 2.22656,0.63802 0.69011,0.625 0.69011,2.03125 v 1.60157 q 0,1.10677 -0.5599,1.65365 -0.54687,0.54687 -1.73177,0.6901 1.15885,0.14323 1.75781,0.83334 0.61198,0.67708 0.61198,1.86198 v 1.75781 q 0,1.36719 -0.95052,2.03125 -0.9375,0.66407 -2.86459,0.66407 z m 22.73441,-5.14324 h 7.40886 l -3.71094,-7.04428 z m -4.98699,5.14324 7.51303,-13.76304 h 2.46094 l 7.64324,13.76304 h -2.52604 l -1.75782,-3.38542 h -9.3099 l -1.75782,3.38542 z m 33.72401,-11.88804 h -9.54429 v 9.97397 h 9.54429 v -3.45052 l 2.30469,0.48177 v 1.6276 q 0,1.90105 -0.66407,2.57813 -0.66406,0.67709 -2.53906,0.67709 h -7.70835 q -1.875,0 -2.55208,-0.67709 -0.67709,-0.6901 -0.67709,-2.57813 v -7.25261 q 0,-1.88802 0.67709,-2.56511 0.67708,-0.6901 2.55208,-0.6901 h 7.70835 q 1.875,0 2.53906,0.67708 0.66407,0.67709 0.66407,2.57813 v 1.30209 l -2.30469,0.42968 z m 8.34636,11.88804 v -13.76304 h 2.30469 v 5.89844 l 8.58074,-5.89844 h 3.35938 l -9.97397,6.58855 11.06772,7.17449 h -3.84115 l -9.19272,-6.18491 v 6.18491 z"
       id="text32-2"
       style="font-size:26.6667px;line-height:1.25;font-family:'BankGothic Lt BT';-inkscape-font-specification:'BankGothic Lt BT';white-space:pre"
       transform="matrix(0.26458333,0,0,0.26458333,-52.452761,90.435914)"
       aria-label="BACK" />
    <path
       d="m 619.35419,241.85223 h -9.54429 v 9.97397 h 9.54429 v -3.45053 l 2.30469,0.48178 v 1.6276 q 0,1.90105 -0.66407,2.57813 -0.66406,0.67708 -2.53906,0.67708 h -7.70835 q -1.875,0 -2.55208,-0.67708 -0.67709,-0.69011 -0.67709,-2.57813 v -7.25261 q 0,-1.88802 0.67709,-2.56511 0.67708,-0.6901 2.55208,-0.6901 h 7.70835 q 1.875,0 2.53906,0.67708 0.66407,0.67708 0.66407,2.57813 v 1.30208 l -2.30469,0.42969 z m 10.65105,6.7448 h 7.40886 l -3.71094,-7.04428 z m -4.98698,5.14323 7.51303,-13.76303 h 2.46094 l 7.64323,13.76303 h -2.52604 l -1.75781,-3.38542 h -9.30991 l -1.75782,3.38542 z m 23.9193,-11.30209 q 0.0521,0.40364 0.0781,0.84635 0.026,0.44271 0.026,1.17188 v 9.28386 h -1.95313 v -13.76303 h 1.87501 l 6.69271,8.95834 6.23699,-8.95834 h 2.10938 v 13.76303 h -2.10938 v -9.28386 q 0,-0.18229 0.0391,-0.91146 0.0521,-0.74219 0.0651,-1.10677 -0.26042,0.53385 -0.46875,0.89844 -0.19532,0.36458 -0.35157,0.58593 l -5.26042,7.65626 h -0.58594 l -5.46875,-7.44792 q -0.013,-0.013 -0.0651,-0.0911 -0.59896,-0.82031 -0.85937,-1.60156 z"
       id="text33"
       style="font-size:26.6667px;line-height:1.25;font-family:'BankGothic Lt BT';-inkscape-font-specification:'BankGothic Lt BT';white-space:pre"
       transform="matrix(0.26458333,0,0,0.26458333,-63.598522,48.349411)"
       aria-label="CAM" />
    <path
       d="m 131.25652,208.50002 h -6.01563 v 3.64584 h 6.01563 q 0.71615,0 0.96355,-0.23438 0.24739,-0.23438 0.24739,-0.91146 v -1.35417 q 0,-0.625 -0.26041,-0.88542 -0.26042,-0.26041 -0.95053,-0.26041 z m -8.15105,9.64845 v -11.3021 h 9.08856 q 1.26302,0 1.80989,0.52083 0.5599,0.50782 0.5599,1.66667 v 2.52605 q 0,1.14583 -0.5599,1.65365 -0.54687,0.50781 -1.80989,0.50781 h -1.4974 l 4.98698,4.42709 h -2.85156 l -4.50522,-4.42709 h -3.08594 v 4.42709 z m 18.20315,-1.70573 h 9.44012 v -7.91668 h -9.44012 z m -2.13542,-6.91408 q 0,-1.54948 0.58594,-2.10937 0.58594,-0.57292 2.1875,-0.57292 h 8.16407 q 1.60157,0 2.18751,0.57292 0.58593,0.55989 0.58593,2.10937 v 5.95053 q 0,1.54948 -0.58593,2.10938 -0.57292,0.5599 -2.18751,0.5599 h -8.16407 q -1.62761,0 -2.20052,-0.54688 -0.57292,-0.55989 -0.57292,-2.1224 z m 24.10159,-1.0026 v 9.62241 h -2.1224 v -9.62241 h -5.33855 v -1.67969 h 12.82554 v 1.67969 z m 5.76824,9.62241 6.53647,-11.3021 h 1.95312 l 6.69272,11.3021 h -2.31771 l -1.47136,-2.64324 h -7.81251 l -1.44531,2.64324 z m 4.47917,-4.27084 h 6.00261 l -3.00781,-5.37761 z m 18.05992,-5.35157 v 9.62241 h -2.1224 v -9.62241 h -5.33855 v -1.67969 h 12.82554 v 1.67969 z m 8.56772,9.62241 v -11.3021 h 11.38022 v 1.67969 h -9.2448 v 2.90365 h 5.57292 v 1.67969 h -5.57292 v 3.38542 h 9.34897 v 1.65365 z m 29.30994,0 v -4.9349 l -5.89845,-6.3672 h 2.59115 l 4.50521,4.89584 4.29688,-4.89584 h 2.50001 l -5.87241,6.3672 v 4.9349 z"
       id="text35"
       style="font-size:26.6667px;line-height:1.25;font-family:'BankGothic Lt BT';-inkscape-font-specification:'BankGothic Lt BT';white-space:pre"
       transform="matrix(0.26458333,0,0,0.26458333,56.914007,20.195575)"
       aria-label="rotate y" />
    <path
       d="m 131.25652,208.50002 h -6.01563 v 3.64584 h 6.01563 q 0.71615,0 0.96355,-0.23438 0.24739,-0.23438 0.24739,-0.91146 v -1.35417 q 0,-0.625 -0.26041,-0.88542 -0.26042,-0.26041 -0.95053,-0.26041 z m -8.15105,9.64845 v -11.3021 h 9.08856 q 1.26302,0 1.80989,0.52083 0.5599,0.50782 0.5599,1.66667 v 2.52605 q 0,1.14583 -0.5599,1.65365 -0.54687,0.50781 -1.80989,0.50781 h -1.4974 l 4.98698,4.42709 h -2.85156 l -4.50522,-4.42709 h -3.08594 v 4.42709 z m 18.20315,-1.70573 h 9.44012 v -7.91668 h -9.44012 z m -2.13542,-6.91408 q 0,-1.54948 0.58594,-2.10937 0.58594,-0.57292 2.1875,-0.57292 h 8.16407 q 1.60157,0 2.18751,0.57292 0.58593,0.55989 0.58593,2.10937 v 5.95053 q 0,1.54948 -0.58593,2.10938 -0.57292,0.5599 -2.18751,0.5599 h -8.16407 q -1.62761,0 -2.20052,-0.54688 -0.57292,-0.55989 -0.57292,-2.1224 z m 24.10159,-1.0026 v 9.62241 h -2.1224 v -9.62241 h -5.33855 v -1.67969 h 12.82554 v 1.67969 z m 5.76824,9.62241 6.53647,-11.3021 h 1.95312 l 6.69272,11.3021 h -2.31771 l -1.47136,-2.64324 h -7.81251 l -1.44531,2.64324 z m 4.47917,-4.27084 h 6.00261 l -3.00781,-5.37761 z m 18.05992,-5.35157 v 9.62241 h -2.1224 v -9.62241 h -5.33855 v -1.67969 h 12.82554 v 1.67969 z m 8.56772,9.62241 v -11.3021 h 11.38022 v 1.67969 h -9.2448 v 2.90365 h 5.57292 v 1.67969 h -5.57292 v 3.38542 h 9.34897 v 1.65365 z m 24.76566,0 v -1.01563 l 8.54168,-8.60678 h -7.76043 v -1.67969 h 11.14585 v 0.89844 l -8.6198,8.69793 h 8.6198 v 1.70573 z"
       id="text36"
       style="font-size:26.6667px;line-height:1.25;font-family:'BankGothic Lt BT';-inkscape-font-specification:'BankGothic Lt BT';white-space:pre"
       transform="matrix(0.26458333,0,0,0.26458333,19.953319,20.195575)"
       aria-label="rotate z" />
    <path
       d="m 131.25652,208.50002 h -6.01563 v 3.64584 h 6.01563 q 0.71615,0 0.96355,-0.23438 0.24739,-0.23438 0.24739,-0.91146 v -1.35417 q 0,-0.625 -0.26041,-0.88542 -0.26042,-0.26041 -0.95053,-0.26041 z m -8.15105,9.64845 v -11.3021 h 9.08856 q 1.26302,0 1.80989,0.52083 0.5599,0.50782 0.5599,1.66667 v 2.52605 q 0,1.14583 -0.5599,1.65365 -0.54687,0.50781 -1.80989,0.50781 h -1.4974 l 4.98698,4.42709 h -2.85156 l -4.50522,-4.42709 h -3.08594 v 4.42709 z m 18.20315,-1.70573 h 9.44012 v -7.91668 h -9.44012 z m -2.13542,-6.91408 q 0,-1.54948 0.58594,-2.10937 0.58594,-0.57292 2.1875,-0.57292 h 8.16407 q 1.60157,0 2.18751,0.57292 0.58593,0.55989 0.58593,2.10937 v 5.95053 q 0,1.54948 -0.58593,2.10938 -0.57292,0.5599 -2.18751,0.5599 h -8.16407 q -1.62761,0 -2.20052,-0.54688 -0.57292,-0.55989 -0.57292,-2.1224 z m 24.10159,-1.0026 v 9.62241 h -2.1224 v -9.62241 h -5.33855 v -1.67969 h 12.82554 v 1.67969 z m 5.76824,9.62241 6.53647,-11.3021 h 1.95312 l 6.69272,11.3021 h -2.31771 l -1.47136,-2.64324 h -7.81251 l -1.44531,2.64324 z m 4.47917,-4.27084 h 6.00261 l -3.00781,-5.37761 z m 18.05992,-5.35157 v 9.62241 h -2.1224 v -9.62241 h -5.33855 v -1.67969 h 12.82554 v 1.67969 z m 8.56772,9.62241 v -11.3021 h 11.38022 v 1.67969 h -9.2448 v 2.90365 h 5.57292 v 1.67969 h -5.57292 v 3.38542 h 9.34897 v 1.65365 z m 24.76566,0 v -1.01563 l 8.54168,-8.60678 h -7.76043 v -1.67969 h 11.14585 v 0.89844 l -8.6198,8.69793 h 8.6198 v 1.70573 z"
       id="text38"
       style="font-size:26.6667px;line-height:1.25;font-family:'BankGothic Lt BT';-inkscape-font-specification:'BankGothic Lt BT';white-space:pre"
       transform="matrix(0.26458333,0,0,0.26458333,19.953299,94.482529)"
       aria-label="rotate z" />
    <path
       d="m 131.25652,208.50002 h -6.01563 v 3.64584 h 6.01563 q 0.71615,0 0.96355,-0.23438 0.24739,-0.23438 0.24739,-0.91146 v -1.35417 q 0,-0.625 -0.26041,-0.88542 -0.26042,-0.26041 -0.95053,-0.26041 z m -8.15105,9.64845 v -11.3021 h 9.08856 q 1.26302,0 1.80989,0.52083 0.5599,0.50782 0.5599,1.66667 v 2.52605 q 0,1.14583 -0.5599,1.65365 -0.54687,0.50781 -1.80989,0.50781 h -1.4974 l 4.98698,4.42709 h -2.85156 l -4.50522,-4.42709 h -3.08594 v 4.42709 z m 18.20315,-1.70573 h 9.44012 v -7.91668 h -9.44012 z m -2.13542,-6.91408 q 0,-1.54948 0.58594,-2.10937 0.58594,-0.57292 2.1875,-0.57292 h 8.16407 q 1.60157,0 2.18751,0.57292 0.58593,0.55989 0.58593,2.10937 v 5.95053 q 0,1.54948 -0.58593,2.10938 -0.57292,0.5599 -2.18751,0.5599 h -8.16407 q -1.62761,0 -2.20052,-0.54688 -0.57292,-0.55989 -0.57292,-2.1224 z m 24.10159,-1.0026 v 9.62241 h -2.1224 v -9.62241 h -5.33855 v -1.67969 h 12.82554 v 1.67969 z m 5.76824,9.62241 6.53647,-11.3021 h 1.95312 l 6.69272,11.3021 h -2.31771 l -1.47136,-2.64324 h -7.81251 l -1.44531,2.64324 z m 4.47917,-4.27084 h 6.00261 l -3.00781,-5.37761 z m 18.05992,-5.35157 v 9.62241 h -2.1224 v -9.62241 h -5.33855 v -1.67969 h 12.82554 v 1.67969 z m 8.56772,9.62241 v -11.3021 h 11.38022 v 1.67969 h -9.2448 v 2.90365 h 5.57292 v 1.67969 h -5.57292 v 3.38542 h 9.34897 v 1.65365 z m 23.73701,0 5.67709,-5.78126 -5.76823,-5.52084 h 2.89062 l 4.07553,4.10157 3.73698,-4.10157 h 2.63022 l -5.19532,5.2474 6.35417,6.0547 h -2.99479 l -4.5573,-4.58334 -4.10157,4.58334 z"
       id="text40"
       style="font-size:26.6667px;line-height:1.25;font-family:'BankGothic Lt BT';-inkscape-font-specification:'BankGothic Lt BT';white-space:pre"
       transform="matrix(0.26458333,0,0,0.26458333,19.762096,57.440845)"
       aria-label="rotate x" />
    <g
       id="g48"
       transform="translate(4.2333335)">
      <path
         id="rect30"
         style="fill:#449a61;stroke-width:0.169828;stroke-linecap:round"
         d="M 12.129491,128.13448 H 38.3464 c 2.604392,0 4.701068,2.09667 4.701068,4.70106 v 16.28052 c 0,2.60439 -2.096676,4.70107 -4.701068,4.70107 H 12.129491 c -2.6043918,0 -4.7010681,-2.09668 -4.7010681,-4.70107 v -16.28052 c 0,-2.60439 2.0966763,-4.70106 4.7010681,-4.70106 z" />
      <path
         style="fill:#000000;fill-opacity:1;stroke:#000000;stroke-width:0.0773255px;stroke-linecap:butt;stroke-linejoin:miter;stroke-opacity:1"
         d="m 29.85056,140.97655 c -3.12341,1.4555 -6.25449,2.87265 -9.27909,4.8222 v -9.6444 c 2.96709,1.98654 6.04953,3.35625 9.27909,4.8222 z"
         id="path30"
         sodipodi:nodetypes="cccc" />
      <path
         d="m 30.684258,381.29299 h -6.015632 v 3.64583 h 6.015632 q 0.716147,0 0.963543,-0.23437 0.247396,-0.23438 0.247396,-0.91146 v -1.35417 q 0,-0.625 -0.260417,-0.88542 -0.260417,-0.26041 -0.950522,-0.26041 z m -8.151052,9.64845 v -11.3021 h 9.088554 q 1.263022,0 1.809898,0.52083 0.559896,0.50782 0.559896,1.66667 v 2.52605 q 0,1.14583 -0.559896,1.65364 -0.546876,0.50782 -1.809898,0.50782 h -1.497398 l 4.986985,4.42709 h -2.851566 l -4.505214,-4.42709 h -3.085941 v 4.42709 z m 18.411481,0 h -2.122398 v -11.27606 h 2.122398 z m 15.976583,-9.62241 h -8.932303 v 7.91667 h 8.932303 v -3.07292 h -4.609381 v -1.53646 h 6.7448 v 3.64584 q 0,1.54948 -0.585938,2.10938 -0.572918,0.5599 -2.187503,0.5599 h -7.65626 q -1.614585,0 -2.200523,-0.54688 -0.572918,-0.5599 -0.572918,-2.1224 v -5.95053 q 0,-1.54948 0.585938,-2.10937 0.585939,-0.57292 2.187503,-0.57292 h 7.65626 q 1.575523,0 2.174482,0.55989 0.598959,0.5599 0.598959,1.96615 v 0.32552 l -2.135419,0.36459 z m 6.86199,9.62241 v -11.27606 h 2.135419 v 4.53126 h 9.010428 v -4.53126 h 2.13542 v 11.27606 h -2.13542 v -5.03907 h -9.010428 v 5.03907 z m 23.932323,-9.62241 v 9.62241 h -2.122399 v -9.62241 h -5.338548 v -1.67969 h 12.825537 v 1.67969 z"
         id="text43"
         style="font-size:26.6667px;line-height:1.25;font-family:'BankGothic Lt BT';-inkscape-font-specification:'BankGothic Lt BT';white-space:pre"
         transform="matrix(0.26458333,0,0,0.26458333,9.9432591,48.630355)"
         aria-label="right" />
    </g>
    <path
       d="m 131.25652,208.50002 h -6.01563 v 3.64584 h 6.01563 q 0.71615,0 0.96355,-0.23438 0.24739,-0.23438 0.24739,-0.91146 v -1.35417 q 0,-0.625 -0.26041,-0.88542 -0.26042,-0.26041 -0.95053,-0.26041 z m -8.15105,9.64845 v -11.3021 h 9.08856 q 1.26302,0 1.80989,0.52083 0.5599,0.50782 0.5599,1.66667 v 2.52605 q 0,1.14583 -0.5599,1.65365 -0.54687,0.50781 -1.80989,0.50781 h -1.4974 l 4.98698,4.42709 h -2.85156 l -4.50522,-4.42709 h -3.08594 v 4.42709 z m 18.20315,-1.70573 h 9.44012 v -7.91668 h -9.44012 z m -2.13542,-6.91408 q 0,-1.54948 0.58594,-2.10937 0.58594,-0.57292 2.1875,-0.57292 h 8.16407 q 1.60157,0 2.18751,0.57292 0.58593,0.55989 0.58593,2.10937 v 5.95053 q 0,1.54948 -0.58593,2.10938 -0.57292,0.5599 -2.18751,0.5599 h -8.16407 q -1.62761,0 -2.20052,-0.54688 -0.57292,-0.55989 -0.57292,-2.1224 z m 24.10159,-1.0026 v 9.62241 h -2.1224 v -9.62241 h -5.33855 v -1.67969 h 12.82554 v 1.67969 z m 5.76824,9.62241 6.53647,-11.3021 h 1.95312 l 6.69272,11.3021 h -2.31771 l -1.47136,-2.64324 h -7.81251 l -1.44531,2.64324 z m 4.47917,-4.27084 h 6.00261 l -3.00781,-5.37761 z m 18.05992,-5.35157 v 9.62241 h -2.1224 v -9.62241 h -5.33855 v -1.67969 h 12.82554 v 1.67969 z m 8.56772,9.62241 v -11.3021 h 11.38022 v 1.67969 h -9.2448 v 2.90365 h 5.57292 v 1.67969 h -5.57292 v 3.38542 h 9.34897 v 1.65365 z m 30.69015,0 v -6.00261 l -6.97918,-7.76043 h 2.85157 l 5.37761,6.13282 5.15625,-6.13282 h 2.79949 l -6.91407,7.70834 v 6.0547 z"
       id="text44"
       style="font-size:26.6667px;line-height:1.25;font-family:'BankGothic Lt BT';-inkscape-font-specification:'BankGothic Lt BT';white-space:pre"
       transform="matrix(0.26458333,0,0,0.26458333,56.994967,94.482529)"
       aria-label="rotate Y" />
    <path
       d="m 131.30861,206.26043 h -4.94793 v 9.97397 h 4.94793 q 3.34636,0 4.72657,-1.17187 1.38021,-1.17188 1.38021,-3.88022 0,-2.61719 -1.40626,-3.76302 -1.40625,-1.15886 -4.70052,-1.15886 z m 0.32552,-1.875 q 1.90104,0 3.15104,0.26042 1.26303,0.24739 2.13542,0.80729 1.32813,0.8724 2.08334,2.39584 0.76823,1.52343 0.76823,3.33333 0,1.92709 -0.75521,3.47657 -0.74219,1.53646 -2.09636,2.42188 -0.84635,0.54687 -2.10937,0.80729 -1.26303,0.26042 -3.17709,0.26042 h -7.57814 v -13.76304 z m 16.08075,11.84897 h 11.39324 v -9.97397 h -11.39324 z m -2.29167,-8.59376 q 0,-1.875 0.66406,-2.56511 0.67709,-0.6901 2.56511,-0.6901 h 9.51824 q 1.86198,0 2.52605,0.6901 0.67708,0.67709 0.67708,2.56511 v 7.25261 q 0,1.90105 -0.67708,2.57813 -0.66407,0.67709 -2.52605,0.67709 h -9.51824 q -1.88802,0 -2.56511,-0.69011 -0.66406,-0.6901 -0.66406,-2.56511 z m 25.20837,10.50783 -4.98699,-13.76304 h 2.31771 l 3.72396,10.93751 4.06251,-10.93751 h 1.40625 l 3.91928,10.93751 3.76302,-10.93751 h 2.0573 l -4.98699,13.76304 h -1.70573 l -3.81511,-10.40366 -3.94532,10.40366 z m 20.67711,0 v -13.76304 h 1.44531 l 10.29949,9.20574 q 0.35157,0.3125 0.74219,0.75521 0.40365,0.44271 0.82032,0.97656 -0.10417,-0.66406 -0.15625,-1.38021 -0.0521,-0.72916 -0.0521,-2.00521 v -7.55209 h 2.10938 v 13.76304 h -1.28906 l -10.57293,-9.57033 q -0.0781,-0.0651 -0.23438,-0.20833 -0.78125,-0.70313 -1.15886,-1.34115 0.0781,0.625 0.11719,1.34115 0.0391,0.70313 0.0391,1.66667 v 8.11199 z"
       id="text45"
       style="font-size:26.6667px;line-height:1.25;font-family:'BankGothic Lt BT';-inkscape-font-specification:'BankGothic Lt BT';white-space:pre"
       transform="matrix(0.26458333,0,0,0.26458333,97.922719,94.482529)"
       aria-label="DOWN" />
    <path
       d="m 131.25652,208.50002 h -6.01563 v 3.64584 h 6.01563 q 0.71615,0 0.96355,-0.23438 0.24739,-0.23438 0.24739,-0.91146 v -1.35417 q 0,-0.625 -0.26041,-0.88542 -0.26042,-0.26041 -0.95053,-0.26041 z m -8.15105,9.64845 v -11.3021 h 9.08856 q 1.26302,0 1.80989,0.52083 0.5599,0.50782 0.5599,1.66667 v 2.52605 q 0,1.14583 -0.5599,1.65365 -0.54687,0.50781 -1.80989,0.50781 h -1.4974 l 4.98698,4.42709 h -2.85156 l -4.50522,-4.42709 h -3.08594 v 4.42709 z m 18.20315,-1.70573 h 9.44012 v -7.91668 h -9.44012 z m -2.13542,-6.91408 q 0,-1.54948 0.58594,-2.10937 0.58594,-0.57292 2.1875,-0.57292 h 8.16407 q 1.60157,0 2.18751,0.57292 0.58593,0.55989 0.58593,2.10937 v 5.95053 q 0,1.54948 -0.58593,2.10938 -0.57292,0.5599 -2.18751,0.5599 h -8.16407 q -1.62761,0 -2.20052,-0.54688 -0.57292,-0.55989 -0.57292,-2.1224 z m 24.10159,-1.0026 v 9.62241 h -2.1224 v -9.62241 h -5.33855 v -1.67969 h 12.82554 v 1.67969 z m 5.76824,9.62241 6.53647,-11.3021 h 1.95312 l 6.69272,11.3021 h -2.31771 l -1.47136,-2.64324 h -7.81251 l -1.44531,2.64324 z m 4.47917,-4.27084 h 6.00261 l -3.00781,-5.37761 z m 18.05992,-5.35157 v 9.62241 h -2.1224 v -9.62241 h -5.33855 v -1.67969 h 12.82554 v 1.67969 z m 8.56772,9.62241 v -11.3021 h 11.38022 v 1.67969 h -9.2448 v 2.90365 h 5.57292 v 1.67969 h -5.57292 v 3.38542 h 9.34897 v 1.65365 z m 23.73701,0 5.67709,-5.78126 -5.76823,-5.52084 h 2.89062 l 4.07553,4.10157 3.73698,-4.10157 h 2.63022 l -5.19532,5.2474 6.35417,6.0547 h -2.99479 l -4.5573,-4.58334 -4.10157,4.58334 z"
       id="text46"
       style="font-size:26.6667px;line-height:1.25;font-family:'BankGothic Lt BT';-inkscape-font-specification:'BankGothic Lt BT';white-space:pre"
       transform="matrix(0.26458333,0,0,0.26458333,93.845434,57.440845)"
       aria-label="rotate x" />
    <g
       id="g49">
      <path
         id="rect28"
         style="fill:#449a61;stroke:#449a61;stroke-width:0.168174;stroke-linecap:round"
         d="m -62.064989,128.57059 h 26.439174 c 2.55164,0 4.605849,2.05421 4.605849,4.60585 v 15.95075 c 0,2.55164 -2.054209,4.60585 -4.605849,4.60585 h -26.439174 c -2.55164,0 -4.605848,-2.05421 -4.605848,-4.60585 v -15.95075 c 0,-2.55164 2.054208,-4.60585 4.605848,-4.60585 z" />
      <path
         style="fill:#000000;fill-opacity:1;stroke:#000000;stroke-width:0.0757428px;stroke-linecap:butt;stroke-linejoin:miter;stroke-opacity:1"
         d="m -53.270746,141.15259 c 2.995939,1.45593 5.999229,2.87351 8.900389,4.82364 v -9.6473 c -2.845998,1.98714 -5.802638,3.35727 -8.900389,4.82366 z"
         id="path28"
         sodipodi:nodetypes="cccc" />
      <path
         d="M 23.483728,390.94144 V 377.1784 h 2.304691 v 11.84897 h 10.41668 v 1.91407 z m 17.408877,0 V 377.1784 H 54.14783 v 1.84896 H 43.197295 v 3.82813 h 6.692717 v 1.82292 h -6.692717 v 4.375 h 11.054702 v 1.88803 z m 18.828146,0 V 377.1784 h 13.098975 v 1.875 H 62.025441 v 4.50521 h 6.158862 v 1.83594 h -6.158862 v 5.54689 z M 83.535885,379.0534 v 11.88804 h -2.29167 V 379.0534 h -6.28907 v -1.875 h 14.895852 v 1.875 z"
         id="text47"
         style="font-size:26.6667px;line-height:1.25;font-family:'BankGothic Lt BT';-inkscape-font-specification:'BankGothic Lt BT';white-space:pre"
         transform="matrix(0.26458333,0,0,0.26458333,-63.838641,48.630355)"
         aria-label="LEFT" />
    </g>
    <path
       style="fill:#000000;fill-opacity:1;stroke:#000000;stroke-width:0.0564369px;stroke-linecap:butt;stroke-linejoin:miter;stroke-opacity:1"
       d="m -9.4930013,127.22584 c -1.4204017,1.70492 -2.8033827,3.41404 -4.7059187,5.06503 h 9.4118277 c -1.938623,-1.6196 -3.2753169,-3.30216 -4.705909,-5.06503 z"
       id="path50"
       sodipodi:nodetypes="cccc" />
    <g
       id="g54"
       transform="matrix(0.65206518,0,0,0.65206518,18.60443,35.022446)"
       style="fill:#34362e;fill-opacity:1">
      <path
         id="rect11-6"
         style="stroke-width:0.127754;stroke-linecap:round"
         d="m 29.133902,67.19873 h 1.634195 c 0.268228,0 0.484166,0.215938 0.484166,0.484166 v 12.517488 c 0,0.268228 -0.215938,0.484165 -0.484166,0.484165 h -1.634195 c -0.268228,0 -0.484166,-0.215937 -0.484166,-0.484165 V 67.682896 c 0,-0.268228 0.215938,-0.484166 0.484166,-0.484166 z" />
      <path
         id="rect11-6-1"
         style="stroke-width:0.127754;stroke-linecap:round"
         transform="rotate(90)"
         d="m 73.076992,-36.539249 h 1.634196 c 0.268227,0 0.484165,0.215937 0.484165,0.484165 v 12.517488 c 0,0.268228 -0.215938,0.484165 -0.484165,0.484165 h -1.634196 c -0.268227,0 -0.484165,-0.215937 -0.484165,-0.484165 v -12.517488 c 0,-0.268228 0.215938,-0.484165 0.484165,-0.484165 z" />
    </g>
    <path
       id="rect11-6-1-6"
       style="fill:#34362e;stroke-width:0.0833039;stroke-linecap:round"
       transform="rotate(90)"
       d="m 82.704417,-15.857454 h 1.065602 c 0.174902,0 0.315708,0.140805 0.315708,0.315707 v 8.1622179 c 0,0.1749019 -0.140806,0.3157073 -0.315708,0.3157073 h -1.065602 c -0.174902,0 -0.315707,-0.1408054 -0.315707,-0.3157073 v -8.1622179 c 0,-0.174902 0.140805,-0.315707 0.315707,-0.315707 z" />
    <path
       id="path52"
       style="fill:#34362e;stroke-width:0.2;stroke-linecap:round"
       inkscape:transform-center-x="0.025425505"
       inkscape:transform-center-y="-0.14619167"
       transform="matrix(0.19402997,0,0,0.19402997,11.467094,98.818133)"
       d="m 130.91639,108.38959 -11.45772,-6.32377 -3.3563,18.57219 -11.68721,-7.65126 -8.653726,19.37332 -10.806702,-13.37087 -13.229642,13.24859 -6.148938,-9.59535 -14.581981,11.93893 -4.756313,-13.88687 -16.615096,6.15361 -1.986327,-11.36734 -21.7866113,2.2461 5.5884423,-13.217 -22.83721,1.12744 5.4725954,-10.493383 -17.2133154,-8.331441 6.658312,-7.278767 -17.211289,-11.960706 9.292311,-7.023878 -14.951854,-12.403315 9.302346,-5.901354 -13.912785,-15.936235 13.075729,-6.660623 -11.504033,-15.5019401 16.952691,-0.8273089 -9.169804,-21.388742 16.457564,0.120955 -2.877167,-16.847017 10.407454,-0.186809 6.2504406,-16.832048 8.8268149,3.804058 7.7948665,-15.784185 11.518242,7.293159 8.897011,-17.290341 6.293819,8.857984 17.742598,-12.748904 1.561667,11.883666 19.169252,-14.227242 3.517315,15.32416 17.854022,-8.090594 1.986331,11.367339 17.03051,0.683495 -0.90666,8.562531 21.27268,4.200764 -5.47259,10.493379 17.21331,3.818557 -7.82292,10.940627 18.20693,7.940744 -9.12334,11.8948642 19.38578,10.2885765 -13.81516,6.4010423 13.66957,18.865826 -12.75827,0.443339 11.26082,18.431531 -16.70948,2.410601 8.25777,18.887536 -15.54088,-1.742772 2.87724,21.859588 -10.40753,-4.825763 z" />
    <g
       id="text36-7"
       style="font-size:26.6667px;line-height:1.25;font-family:'BankGothic Lt BT';-inkscape-font-specification:'BankGothic Lt BT';text-align:center;white-space:pre"
       transform="matrix(0.26458333,0,0,0.26458333,-33.837049,43.803274)"
       aria-label="SCROLL&#10;ZOOM&#10;">
      <path
         d="m 172.67963,206.26043 h -9.73959 v 3.84115 h 8.67188 q 1.83594,0 2.51303,0.67709 0.67708,0.67708 0.67708,2.5651 v 1.54948 q 0,1.90105 -0.66406,2.57813 -0.66407,0.67709 -2.52605,0.67709 h -8.03386 q -1.875,0 -2.55209,-0.67709 -0.67708,-0.6901 -0.67708,-2.57813 v -0.3776 l 2.13542,-0.49479 v 2.21354 h 10.24741 v -4.14063 h -8.64585 q -1.875,0 -2.53906,-0.67708 -0.66407,-0.69011 -0.66407,-2.57813 v -1.19792 q 0,-1.88802 0.66407,-2.56511 0.66406,-0.6901 2.53906,-0.6901 h 7.33074 q 1.83594,0 2.52604,0.67708 0.70313,0.66407 0.70313,2.34376 v 0.28645 l -1.96615,0.5599 z m 20.7292,0 h -9.54429 v 9.97397 h 9.54429 v -3.45052 l 2.30469,0.48177 v 1.6276 q 0,1.90105 -0.66407,2.57813 -0.66406,0.67709 -2.53906,0.67709 h -7.70835 q -1.875,0 -2.55208,-0.67709 -0.67709,-0.6901 -0.67709,-2.57813 v -7.25261 q 0,-1.88802 0.67709,-2.56511 0.67708,-0.6901 2.55208,-0.6901 h 7.70835 q 1.875,0 2.53906,0.67708 0.66407,0.67709 0.66407,2.57813 v 1.30209 l -2.30469,0.42968 z m 18.54169,-0.0911 h -7.89064 v 4.83073 h 7.89064 q 0.85937,0 1.17187,-0.3125 0.3125,-0.3125 0.3125,-1.09375 v -2.00521 q 0,-0.78125 -0.32552,-1.09375 -0.3125,-0.32552 -1.15885,-0.32552 z m -10.19533,11.97918 v -13.76304 h 11.09377 q 1.54948,0 2.22656,0.63802 0.69011,0.625 0.69011,2.03125 v 3.07292 q 0,1.39323 -0.69011,2.03126 -0.67708,0.625 -2.22656,0.625 h -2.01824 l 6.28907,5.36459 h -3.41146 l -5.59896,-5.36459 h -4.04949 v 5.36459 z m 22.43493,-1.91407 h 11.39324 v -9.97397 h -11.39324 z m -2.29167,-8.59376 q 0,-1.875 0.66406,-2.56511 0.67708,-0.6901 2.56511,-0.6901 h 9.51824 q 1.86198,0 2.52604,0.6901 0.67709,0.67709 0.67709,2.56511 v 7.25261 q 0,1.90105 -0.67709,2.57813 -0.66406,0.67709 -2.52604,0.67709 h -9.51824 q -1.88803,0 -2.56511,-0.69011 -0.66406,-0.6901 -0.66406,-2.56511 z m 22.92971,10.50783 v -13.76304 h 2.30469 v 11.84897 h 10.41668 v 1.91407 z m 17.40888,0 v -13.76304 h 2.30469 v 11.84897 h 10.41668 v 1.91407 z"
         id="path9" />
      <path
         d="m 174.61323,251.48184 v -0.9375 l 10.19532,-10.95053 h -9.3099 v -1.87501 h 12.98178 v 0.78125 l -10.37761,11.06773 h 10.37761 v 1.91406 z m 22.08336,-1.91406 h 11.39324 v -9.97397 h -11.39324 z m -2.29167,-8.59376 q 0,-1.87501 0.66406,-2.56511 0.67709,-0.69011 2.56511,-0.69011 h 9.51824 q 1.86198,0 2.52605,0.69011 0.67708,0.67708 0.67708,2.56511 v 7.25261 q 0,1.90104 -0.67708,2.57813 -0.66407,0.67708 -2.52605,0.67708 h -9.51824 q -1.88802,0 -2.56511,-0.6901 -0.66406,-0.69011 -0.66406,-2.56511 z m 25.03909,8.59376 h 11.39325 v -9.97397 h -11.39325 z m -2.29167,-8.59376 q 0,-1.87501 0.66407,-2.56511 0.67708,-0.69011 2.56511,-0.69011 h 9.51824 q 1.86198,0 2.52604,0.69011 0.67709,0.67708 0.67709,2.56511 v 7.25261 q 0,1.90104 -0.67709,2.57813 -0.66406,0.67708 -2.52604,0.67708 h -9.51824 q -1.88803,0 -2.56511,-0.6901 -0.66407,-0.69011 -0.66407,-2.56511 z m 24.77868,-0.79428 q 0.0521,0.40365 0.0781,0.84636 0.026,0.44271 0.026,1.17188 v 9.28386 h -1.95313 V 237.7188 h 1.875 l 6.69272,8.95835 6.23699,-8.95835 h 2.10938 v 13.76304 h -2.10938 v -9.28386 q 0,-0.1823 0.0391,-0.91146 0.0521,-0.74219 0.0651,-1.10678 -0.26041,0.53386 -0.46875,0.89844 -0.19531,0.36459 -0.35156,0.58594 l -5.26042,7.65626 h -0.58594 l -5.46876,-7.44793 q -0.013,-0.013 -0.0651,-0.0911 -0.59896,-0.82032 -0.85938,-1.60157 z"
         id="path10" />
    </g>
    <g
       id="g78"
       transform="translate(5.2916663)">
      <g
         id="g64"
         transform="translate(34.925)">
        <path
           id="rect58"
           style="fill:#37a75d;stroke:#449a61;stroke-width:0.2;stroke-linecap:round"
           d="m -144.80154,121.2262 h 22.5793 c 3.61201,0 6.51987,2.90786 6.51987,6.51987 v 22.5793 c 0,3.61201 -2.90786,6.51987 -6.51987,6.51987 h -22.5793 c -3.61201,0 -6.51987,-2.90786 -6.51987,-6.51987 v -22.5793 c 0,-3.61201 2.90786,-6.51987 6.51987,-6.51987 z" />
        <path
           d="m -228.57943,162.28318 h 22.78644 v -19.94791 h -22.78644 z m -4.58333,-17.18749 q 0,-3.75 1.32812,-5.13021 1.35417,-1.38021 5.13021,-1.38021 h 19.03644 q 3.72396,0 5.05208,1.38021 1.35417,1.35417 1.35417,5.13021 v 14.5052 q 0,3.80208 -1.35417,5.15624 -1.32812,1.35417 -5.05208,1.35417 h -19.03644 q -3.77604,0 -5.13021,-1.38021 -1.32812,-1.38021 -1.32812,-5.1302 z"
           id="text58"
           style="font-size:53.3333px;line-height:1.25;font-family:'BankGothic Lt BT';-inkscape-font-specification:'BankGothic Lt BT';white-space:pre"
           transform="matrix(0.26458333,0,0,0.26458333,-75.56229,98.726902)"
           aria-label="O" />
        <path
           d="m 609.8099,251.8262 h 11.39325 v -9.97397 H 609.8099 Z m -2.29167,-8.59376 q 0,-1.875 0.66407,-2.56511 0.67708,-0.6901 2.5651,-0.6901 h 9.51825 q 1.86198,0 2.52604,0.6901 0.67708,0.67709 0.67708,2.56511 v 7.25261 q 0,1.90105 -0.67708,2.57813 -0.66406,0.67708 -2.52604,0.67708 h -9.51825 q -1.88802,0 -2.5651,-0.6901 -0.66407,-0.69011 -0.66407,-2.56511 z m 34.70057,6.99219 v -1.14583 q 0,-0.9375 -0.33854,-1.28906 -0.32552,-0.36459 -1.1849,-0.36459 h -7.94272 v 4.42709 h 7.94272 q 0.8724,0 1.19792,-0.35156 0.32552,-0.35156 0.32552,-1.27605 z m -0.11719,-5.82032 v -1.38021 q 0,-0.67708 -0.29948,-0.9375 -0.28646,-0.26041 -1.10677,-0.26041 h -7.94272 v 3.80208 h 7.94272 q 0.79427,0 1.09375,-0.27343 0.3125,-0.27344 0.3125,-0.95053 z m -11.65366,9.33595 v -13.76303 h 11.09376 q 1.54949,0 2.22657,0.63802 0.6901,0.625 0.6901,2.03125 v 1.60156 q 0,1.10678 -0.55989,1.65365 -0.54688,0.54688 -1.73177,0.69011 1.15885,0.14323 1.75781,0.83333 0.61198,0.67709 0.61198,1.86198 v 1.75782 q 0,1.36719 -0.95052,2.03125 -0.9375,0.66406 -2.86459,0.66406 z m 22.76045,0 q -1.87501,0 -2.53907,-0.67708 -0.66406,-0.67708 -0.66406,-2.57813 v -2.7474 l 2.26563,-0.48177 v 4.57032 h 7.38282 v -11.84897 h 2.29167 v 10.50782 q 0,1.88802 -0.67709,2.57813 -0.66406,0.67708 -2.53906,0.67708 z m 15.69012,0 v -13.76303 h 13.25523 v 1.84896 h -10.95054 v 3.82813 h 6.69272 v 1.82292 h -6.69272 v 4.375 h 11.05471 v 1.88802 z m 30.48181,-11.88803 h -9.54428 v 9.97397 h 9.54428 v -3.45053 l 2.30469,0.48178 v 1.6276 q 0,1.90105 -0.66406,2.57813 -0.66406,0.67708 -2.53907,0.67708 h -7.70834 q -1.875,0 -2.55209,-0.67708 -0.67708,-0.69011 -0.67708,-2.57813 v -7.25261 q 0,-1.88802 0.67708,-2.56511 0.67709,-0.6901 2.55209,-0.6901 h 7.70834 q 1.87501,0 2.53907,0.67708 0.66406,0.67708 0.66406,2.57813 v 1.30208 l -2.30469,0.42969 z m 13.68491,0 v 11.88803 h -2.29167 v -11.88803 h -6.28907 v -1.875 h 14.89585 v 1.875 z"
           id="text59"
           style="font-size:26.6667px;line-height:1.25;font-family:'BankGothic Lt BT';-inkscape-font-specification:'BankGothic Lt BT';white-space:pre"
           transform="matrix(0.26458333,0,0,0.26458333,-309.04951,84.355132)"
           aria-label="OBJECT" />
      </g>
    </g>
    <g
       id="g9">
      <g
         id="g65"
         transform="translate(-76.200003)">
        <g
           id="g57">
          <path
             id="rect56"
             style="fill:#37a75d;stroke:#449a61;stroke-width:0.2;stroke-linecap:round"
             d="m -102.46821,121.2262 h 22.579303 c 3.612007,0 6.519869,2.90786 6.519869,6.51987 v 22.5793 c 0,3.61201 -2.907862,6.51987 -6.519869,6.51987 h -22.579303 c -3.61201,0 -6.51987,-2.90786 -6.51987,-6.51987 v -22.5793 c 0,-3.61201 2.90786,-6.51987 6.51987,-6.51987 z" />
          <path
             d="m -209.4909,142.33527 h -19.08853 v 19.94791 h 19.08853 v -6.90104 l 4.60937,0.96354 v 3.25521 q 0,3.80208 -1.32813,5.15624 -1.32812,1.35417 -5.07812,1.35417 h -15.41665 q -3.75,0 -5.10417,-1.35417 -1.35416,-1.3802 -1.35416,-5.15624 v -14.5052 q 0,-3.77604 1.35416,-5.13021 1.35417,-1.38021 5.10417,-1.38021 h 15.41665 q 3.75,0 5.07812,1.35417 1.32813,1.35417 1.32813,5.15625 v 2.60416 l -4.60937,0.85938 z"
             id="text56"
             style="font-size:53.3333px;line-height:1.25;font-family:'BankGothic Lt BT';-inkscape-font-specification:'BankGothic Lt BT';white-space:pre"
             transform="matrix(0.26458333,0,0,0.26458333,-33.228955,98.726902)"
             aria-label="C" />
          <path
             d="m 619.35419,241.85223 h -9.54429 v 9.97397 h 9.54429 v -3.45053 l 2.30469,0.48178 v 1.6276 q 0,1.90105 -0.66407,2.57813 -0.66406,0.67708 -2.53906,0.67708 h -7.70835 q -1.875,0 -2.55208,-0.67708 -0.67709,-0.69011 -0.67709,-2.57813 v -7.25261 q 0,-1.88802 0.67709,-2.56511 0.67708,-0.6901 2.55208,-0.6901 h 7.70835 q 1.875,0 2.53906,0.67708 0.66407,0.67708 0.66407,2.57813 v 1.30208 l -2.30469,0.42969 z m 10.65105,6.7448 h 7.40886 l -3.71094,-7.04428 z m -4.98698,5.14323 7.51303,-13.76303 h 2.46094 l 7.64323,13.76303 h -2.52604 l -1.75781,-3.38542 h -9.30991 l -1.75782,3.38542 z m 23.9193,-11.30209 q 0.0521,0.40364 0.0781,0.84635 0.026,0.44271 0.026,1.17188 v 9.28386 h -1.95313 v -13.76303 h 1.87501 l 6.69271,8.95834 6.23699,-8.95834 h 2.10938 v 13.76303 h -2.10938 v -9.28386 q 0,-0.18229 0.0391,-0.91146 0.0521,-0.74219 0.0651,-1.10677 -0.26042,0.53385 -0.46875,0.89844 -0.19532,0.36458 -0.35157,0.58593 l -5.26042,7.65626 h -0.58594 l -5.46875,-7.44792 q -0.013,-0.013 -0.0651,-0.0911 -0.59896,-0.82031 -0.85937,-1.60156 z"
             id="text33-0"
             style="font-size:26.6667px;line-height:1.25;font-family:'BankGothic Lt BT';-inkscape-font-specification:'BankGothic Lt BT';white-space:pre"
             transform="matrix(0.26458333,0,0,0.26458333,-259.39018,84.355132)"
             aria-label="CAM" />
        </g>
      </g>
      <g
         id="g80"
         transform="translate(10.583333)">
        <path
           id="rect61"
           style="fill:#37a75d;stroke:#449a61;stroke-width:0.2;stroke-linecap:round"
           d="m -152.20988,121.2262 h 22.5793 c 3.61201,0 6.51987,2.90786 6.51987,6.51987 v 22.5793 c 0,3.61201 -2.90786,6.51987 -6.51987,6.51987 h -22.5793 c -3.61201,0 -6.51987,-2.90786 -6.51987,-6.51987 v -22.5793 c 0,-3.61201 2.90786,-6.51987 6.51987,-6.51987 z" />
        <g
           id="g79">
          <path
             d="m -232.79818,166.1113 v -27.52603 h 4.60937 v 23.69791 h 20.83332 v 3.82812 z"
             id="text61"
             style="font-size:53.3333px;line-height:1.25;font-family:'BankGothic Lt BT';-inkscape-font-specification:'BankGothic Lt BT';white-space:pre"
             transform="matrix(0.26458333,0,0,0.26458333,-82.97063,98.726902)"
             aria-label="L" />
          <path
             d="m 607.70053,253.74026 v -13.76303 h 2.30469 v 11.84897 h 10.41668 v 1.91406 z m 17.40887,0 v -13.76303 h 2.30469 v 13.76303 z m 22.33076,-11.88803 h -10.78127 v 9.97397 h 10.78127 v -4.03646 h -5.57293 v -1.75782 h 7.8646 v 4.45313 q 0,1.88802 -0.67709,2.57813 -0.67708,0.67708 -2.55208,0.67708 h -8.90626 q -1.88803,0 -2.56511,-0.6901 -0.66407,-0.69011 -0.66407,-2.56511 v -7.25261 q 0,-1.875 0.66407,-2.56511 0.67708,-0.6901 2.56511,-0.6901 h 8.90626 q 1.84896,0 2.53906,0.67708 0.69011,0.66406 0.69011,2.42188 v 0.33854 l -2.29167,0.45573 z m 8.89324,11.88803 v -13.76303 h 2.30469 v 5.625 h 10.84637 v -5.625 h 2.29167 v 13.76303 h -2.29167 v -6.23698 h -10.84637 v 6.23698 z m 27.92973,-11.88803 v 11.88803 h -2.29167 v -11.88803 h -6.28907 v -1.875 h 14.89585 v 1.875 z"
             id="text62"
             style="font-size:26.6667px;line-height:1.25;font-family:'BankGothic Lt BT';-inkscape-font-specification:'BankGothic Lt BT';white-space:pre"
             transform="matrix(0.26458333,0,0,0.26458333,-312.67169,84.355132)"
             aria-label="LIGHT" />
        </g>
      </g>
    </g>
    <path
       d="m -182.74746,99.892323 h -3.34923 v 3.500007 h 3.34923 v -1.21084 l 0.80874,0.16906 v 0.57115 q 0,0.66711 -0.23303,0.9047 -0.23302,0.2376 -0.89099,0.2376 h -2.70496 q -0.65797,0 -0.89557,-0.2376 -0.23759,-0.24216 -0.23759,-0.9047 v -2.54504 q 0,-0.662527 0.23759,-0.900127 0.2376,-0.242167 0.89557,-0.242167 h 2.70496 q 0.65797,0 0.89099,0.237597 0.23303,0.2376 0.23303,0.904697 v 0.45692 l -0.80874,0.15078 z m 2.92885,4.171677 v -4.829634 h 0.80875 v 1.973884 h 3.80614 v -1.973884 h 0.80418 V 104.064 h -0.80418 v -2.18864 h -3.80614 v 2.18864 z m 8.73631,-1.80483 h 2.59987 l -1.30222,-2.471937 z m -1.75001,1.80483 2.63643,-4.829634 h 0.86358 l 2.68212,4.829634 h -0.88643 l -0.61684,-1.18799 h -3.26697 l -0.61685,1.18799 z m 7.7448,0 v -4.829634 h 0.50717 l 3.61424,3.230414 q 0.12337,0.10966 0.26044,0.26502 0.14165,0.15535 0.28786,0.34268 -0.0365,-0.23302 -0.0548,-0.48433 -0.0183,-0.25587 -0.0183,-0.70366 v -2.650124 h 0.74021 V 104.064 h -0.45235 l -3.71019,-3.35836 q -0.0274,-0.0228 -0.0822,-0.0731 -0.27416,-0.24674 -0.40666,-0.47063 0.0274,0.21932 0.0411,0.47063 0.0137,0.24673 0.0137,0.58485 v 2.84661 z m 12.36424,-4.171677 h -3.78329 v 3.500007 h 3.78329 v -1.41645 h -1.95562 v -0.61684 h 2.7598 v 1.56266 q 0,0.66254 -0.2376,0.9047 -0.2376,0.2376 -0.89556,0.2376 h -3.12533 q -0.66254,0 -0.90013,-0.24217 -0.23303,-0.24216 -0.23303,-0.90013 v -2.54504 q 0,-0.657957 0.23303,-0.900127 0.23759,-0.242167 0.90013,-0.242167 h 3.12533 q 0.64883,0 0.89099,0.237597 0.24217,0.23303 0.24217,0.849867 v 0.1188 l -0.80418,0.15992 z m 3.12076,4.171677 v -4.829634 h 4.65144 v 0.648827 h -3.84269 v 1.343337 h 2.34857 v 0.63969 h -2.34857 v 1.53525 h 3.87925 v 0.66253 z m 10.75589,-3.96606 q 0.0183,0.14165 0.0274,0.297 0.009,0.15535 0.009,0.41122 v 3.25784 h -0.68538 v -4.829634 h 0.65797 l 2.34856,3.143604 2.18865,-3.143604 h 0.74021 V 104.064 h -0.74021 v -3.25784 q 0,-0.064 0.0137,-0.31984 0.0183,-0.26044 0.0228,-0.38838 -0.0914,0.18734 -0.16449,0.31527 -0.0685,0.12794 -0.12337,0.20562 l -1.84595,2.68669 h -0.20562 l -1.91906,-2.61359 q -0.005,-0.005 -0.0228,-0.032 -0.21019,-0.28786 -0.30157,-0.56201 z m 8.53983,3.29439 h 3.99805 v -3.500007 h -3.99805 z m -0.80418,-3.01567 q 0,-0.657957 0.23303,-0.900127 0.2376,-0.242167 0.90013,-0.242167 h 3.34008 q 0.6534,0 0.88643,0.242167 0.2376,0.2376 0.2376,0.900127 v 2.54504 q 0,0.66711 -0.2376,0.9047 -0.23303,0.2376 -0.88643,0.2376 h -3.34008 q -0.66253,0 -0.90013,-0.24217 -0.23303,-0.24216 -0.23303,-0.90013 z m 10.5914,-0.484337 h -1.73629 v 3.500007 h 1.73629 q 1.17429,0 1.65862,-0.41123 0.48434,-0.41123 0.48434,-1.36162 0,-0.91841 -0.49348,-1.3205 -0.49347,-0.406657 -1.64948,-0.406657 z m 0.11423,-0.657957 q 0.66711,0 1.10575,0.0914 0.44321,0.0868 0.74935,0.283287 0.46605,0.30613 0.73107,0.840727 0.26958,0.53459 0.26958,1.16971 0,0.67624 -0.26501,1.21998 -0.26044,0.53916 -0.73564,0.84987 -0.297,0.1919 -0.74021,0.28329 -0.44321,0.0914 -1.11489,0.0914 h -2.65927 v -4.829634 z m 4.90275,4.829634 v -4.829634 h 4.65143 v 0.648827 h -3.84268 v 1.343337 h 2.34856 v 0.63969 h -2.34856 v 1.53525 h 3.87924 v 0.66253 z"
       id="text65"
       style="font-size:26.6667px;line-height:1.25;font-family:'BankGothic Lt BT';-inkscape-font-specification:'BankGothic Lt BT';white-space:pre;fill:#34362e;fill-opacity:1;stroke:#34362e;stroke-width:1.32629;stroke-dasharray:none;stroke-opacity:1"
       aria-label="CHANGE MODE" />
    <g
       id="g73">
      <path
         id="rect66"
         style="fill:#6d863b;stroke:#cf0000;stroke-width:0.2;stroke-linecap:round"
         d="m 167.40682,47.142857 h 22.5793 c 3.61201,0 6.51987,2.907862 6.51987,6.519869 v 22.579306 c 0,3.612008 -2.90786,6.51987 -6.51987,6.51987 h -22.5793 c -3.61201,0 -6.51987,-2.907862 -6.51987,-6.51987 V 53.662726 c 0,-3.612007 2.90786,-6.519869 6.51987,-6.519869 z" />
      <path
         id="rect67"
         style="fill:#6d863b;stroke:#cf0000;stroke-width:0.2;stroke-linecap:round"
         d="m 167.40682,47.142857 h 22.5793 c 3.61201,0 6.51987,2.907862 6.51987,6.519869 v 22.579306 c 0,3.612008 -2.90786,6.51987 -6.51987,6.51987 h -22.5793 c -3.61201,0 -6.51987,-2.907862 -6.51987,-6.51987 V 53.662726 c 0,-3.612007 2.90786,-6.519869 6.51987,-6.519869 z" />
      <path
         d="m 607.70053,253.74026 v -13.76303 h 2.30469 v 11.84897 h 10.41668 v 1.91406 z m 17.40887,0 v -13.76303 h 2.30469 v 13.76303 z m 22.33076,-11.88803 h -10.78127 v 9.97397 h 10.78127 v -4.03646 h -5.57293 v -1.75782 h 7.8646 v 4.45313 q 0,1.88802 -0.67709,2.57813 -0.67708,0.67708 -2.55208,0.67708 h -8.90626 q -1.88803,0 -2.56511,-0.6901 -0.66407,-0.69011 -0.66407,-2.56511 v -7.25261 q 0,-1.875 0.66407,-2.56511 0.67708,-0.6901 2.56511,-0.6901 h 8.90626 q 1.84896,0 2.53906,0.67708 0.69011,0.66406 0.69011,2.42188 v 0.33854 l -2.29167,0.45573 z m 8.89324,11.88803 v -13.76303 h 2.30469 v 5.625 h 10.84637 v -5.625 h 2.29167 v 13.76303 h -2.29167 v -6.23698 h -10.84637 v 6.23698 z m 27.92973,-11.88803 v 11.88803 h -2.29167 v -11.88803 h -6.28907 v -1.875 h 14.89585 v 1.875 z"
         id="text62-1"
         style="font-size:26.6667px;line-height:1.25;font-family:'BankGothic Lt BT';-inkscape-font-specification:'BankGothic Lt BT';white-space:pre"
         transform="matrix(0.26458333,0,0,0.26458333,6.945011,11.104141)"
         aria-label="LIGHT" />
      <path
         id="rect11-6-1-60"
         style="stroke-width:0.0833039;stroke-linecap:round"
         transform="rotate(90)"
         d="m 64.388576,-183.09328 h 1.065602 c 0.174902,0 0.315707,0.14081 0.315707,0.31571 v 8.16222 c 0,0.1749 -0.140805,0.31571 -0.315707,0.31571 h -1.065602 c -0.174902,0 -0.315708,-0.14081 -0.315708,-0.31571 v -8.16222 c 0,-0.1749 0.140806,-0.31571 0.315708,-0.31571 z" />
    </g>
    <g
       id="g72"
       transform="translate(0,37.041668)">
      <path
         id="rect68"
         style="fill:#6d863b;stroke:#cf0000;stroke-width:0.2;stroke-linecap:round"
         d="m 167.40682,47.142857 h 22.5793 c 3.61201,0 6.51987,2.907862 6.51987,6.519869 v 22.579306 c 0,3.612008 -2.90786,6.51987 -6.51987,6.51987 h -22.5793 c -3.61201,0 -6.51987,-2.907862 -6.51987,-6.51987 V 53.662726 c 0,-3.612007 2.90786,-6.519869 6.51987,-6.519869 z" />
      <path
         id="rect69"
         style="fill:#6d863b;stroke:#cf0000;stroke-width:0.2;stroke-linecap:round"
         d="m 167.40682,47.142857 h 22.5793 c 3.61201,0 6.51987,2.907862 6.51987,6.519869 v 22.579306 c 0,3.612008 -2.90786,6.51987 -6.51987,6.51987 h -22.5793 c -3.61201,0 -6.51987,-2.907862 -6.51987,-6.51987 V 53.662726 c 0,-3.612007 2.90786,-6.519869 6.51987,-6.519869 z" />
      <path
         d="m 607.70053,253.74026 v -13.76303 h 2.30469 v 11.84897 h 10.41668 v 1.91406 z m 17.40887,0 v -13.76303 h 2.30469 v 13.76303 z m 22.33076,-11.88803 h -10.78127 v 9.97397 h 10.78127 v -4.03646 h -5.57293 v -1.75782 h 7.8646 v 4.45313 q 0,1.88802 -0.67709,2.57813 -0.67708,0.67708 -2.55208,0.67708 h -8.90626 q -1.88803,0 -2.56511,-0.6901 -0.66407,-0.69011 -0.66407,-2.56511 v -7.25261 q 0,-1.875 0.66407,-2.56511 0.67708,-0.6901 2.56511,-0.6901 h 8.90626 q 1.84896,0 2.53906,0.67708 0.69011,0.66406 0.69011,2.42188 v 0.33854 l -2.29167,0.45573 z m 8.89324,11.88803 v -13.76303 h 2.30469 v 5.625 h 10.84637 v -5.625 h 2.29167 v 13.76303 h -2.29167 v -6.23698 h -10.84637 v 6.23698 z m 27.92973,-11.88803 v 11.88803 h -2.29167 v -11.88803 h -6.28907 v -1.875 h 14.89585 v 1.875 z"
         id="text69"
         style="font-size:26.6667px;line-height:1.25;font-family:'BankGothic Lt BT';-inkscape-font-specification:'BankGothic Lt BT';white-space:pre"
         transform="matrix(0.26458333,0,0,0.26458333,6.945011,11.104141)"
         aria-label="LIGHT" />
      <g
         id="g71"
         transform="matrix(0.65206518,0,0,0.65206518,159.26731,16.73761)"
         style="fill:#000000;fill-opacity:1">
        <path
           id="rect70"
           style="stroke-width:0.127754;stroke-linecap:round"
           d="m 29.133902,67.19873 h 1.634195 c 0.268228,0 0.484166,0.215938 0.484166,0.484166 v 12.517488 c 0,0.268228 -0.215938,0.484165 -0.484166,0.484165 h -1.634195 c -0.268228,0 -0.484166,-0.215937 -0.484166,-0.484165 V 67.682896 c 0,-0.268228 0.215938,-0.484166 0.484166,-0.484166 z" />
        <path
           id="rect71"
           style="stroke-width:0.127754;stroke-linecap:round"
           transform="rotate(90)"
           d="m 73.076992,-36.539249 h 1.634196 c 0.268227,0 0.484165,0.215937 0.484165,0.484165 v 12.517488 c 0,0.268228 -0.215938,0.484165 -0.484165,0.484165 h -1.634196 c -0.268227,0 -0.484165,-0.215937 -0.484165,-0.484165 v -12.517488 c 0,-0.268228 0.215938,-0.484165 0.484165,-0.484165 z" />
      </g>
    </g>
    <path
       id="rect73"
       style="fill:#37a75d;stroke:#449a61;stroke-width:0.2;stroke-linecap:round"
       d="m -215.7099,121.2262 h 22.57931 c 3.61201,0 6.51987,2.90786 6.51987,6.51987 v 22.5793 c 0,3.61201 -2.90786,6.51987 -6.51987,6.51987 h -22.57931 c -3.612,0 -6.51987,-2.90786 -6.51987,-6.51987 v -22.5793 c 0,-3.61201 2.90787,-6.51987 6.51987,-6.51987 z" />
    <path
       d="m -228.18881,155.82485 h 14.8177 l -7.42187,-14.08854 z m -9.97395,10.28645 15.02603,-27.52603 h 4.92187 l 15.28645,27.52603 h -5.05208 l -3.51562,-6.77083 h -18.61978 l -3.51562,6.77083 z"
       id="text73"
       style="font-size:53.3333px;line-height:1.25;font-family:'BankGothic Lt BT';-inkscape-font-specification:'BankGothic Lt BT';white-space:pre"
       transform="matrix(0.26458333,0,0,0.26458333,-146.47064,98.726902)"
       aria-label="A" />
    <path
       d="m 703.45895,248.59703 h 7.40886 l -3.71094,-7.04428 z m -4.98698,5.14323 7.51303,-13.76303 h 2.46094 l 7.64324,13.76303 h -2.52605 l -1.75781,-3.38542 h -9.30991 l -1.75782,3.38542 z m 23.9193,-11.30209 q 0.0521,0.40364 0.0781,0.84635 0.026,0.44271 0.026,1.17188 v 9.28386 h -1.95312 v -13.76303 h 1.875 l 6.69272,8.95834 6.23698,-8.95834 h 2.10938 v 13.76303 h -2.10938 v -9.28386 q 0,-0.18229 0.0391,-0.91146 0.0521,-0.74219 0.0651,-1.10677 -0.26042,0.53385 -0.46875,0.89844 -0.19531,0.36458 -0.35156,0.58593 l -5.26043,7.65626 h -0.58593 l -5.46876,-7.44792 q -0.013,-0.013 -0.0651,-0.0911 -0.59896,-0.82031 -0.85937,-1.60156 z m 33.99744,7.78646 v -1.14583 q 0,-0.9375 -0.33854,-1.28906 -0.32552,-0.36459 -1.1849,-0.36459 h -7.94272 v 4.42709 h 7.94272 q 0.8724,0 1.19792,-0.35156 0.32552,-0.35156 0.32552,-1.27605 z m -0.11719,-5.82032 v -1.38021 q 0,-0.67708 -0.29948,-0.9375 -0.28646,-0.26041 -1.10677,-0.26041 h -7.94272 v 3.80208 h 7.94272 q 0.79427,0 1.09375,-0.27343 0.3125,-0.27344 0.3125,-0.95053 z m -11.65366,9.33595 v -13.76303 h 11.09377 q 1.54948,0 2.22656,0.63802 0.69011,0.625 0.69011,2.03125 v 1.60156 q 0,1.10678 -0.5599,1.65365 -0.54688,0.54688 -1.73177,0.69011 1.15885,0.14323 1.75781,0.83333 0.61198,0.67709 0.61198,1.86198 v 1.75782 q 0,1.36719 -0.95052,2.03125 -0.9375,0.66406 -2.86459,0.66406 z"
       id="text74"
       style="font-size:26.6667px;line-height:1.25;font-family:'BankGothic Lt BT';-inkscape-font-specification:'BankGothic Lt BT';text-align:center;white-space:pre"
       transform="matrix(0.26458333,0,0,0.26458333,-397.1928,81.18013)"
       aria-label="AMB&#10;" />
    <path
       d="m 607.70053,253.74026 v -13.76303 h 2.30469 v 11.84897 h 10.41668 v 1.91406 z m 17.40887,0 v -13.76303 h 2.30469 v 13.76303 z m 22.33076,-11.88803 h -10.78127 v 9.97397 h 10.78127 v -4.03646 h -5.57293 v -1.75782 h 7.8646 v 4.45313 q 0,1.88802 -0.67709,2.57813 -0.67708,0.67708 -2.55208,0.67708 h -8.90626 q -1.88803,0 -2.56511,-0.6901 -0.66407,-0.69011 -0.66407,-2.56511 v -7.25261 q 0,-1.875 0.66407,-2.56511 0.67708,-0.6901 2.56511,-0.6901 h 8.90626 q 1.84896,0 2.53906,0.67708 0.69011,0.66406 0.69011,2.42188 v 0.33854 l -2.29167,0.45573 z m 8.89324,11.88803 v -13.76303 h 2.30469 v 5.625 h 10.84637 v -5.625 h 2.29167 v 13.76303 h -2.29167 v -6.23698 h -10.84637 v 6.23698 z m 27.92973,-11.88803 v 11.88803 h -2.29167 v -11.88803 h -6.28907 v -1.875 h 14.89585 v 1.875 z"
       id="text76"
       style="font-size:26.6667px;line-height:1.25;font-family:'BankGothic Lt BT';-inkscape-font-specification:'BankGothic Lt BT';white-space:pre"
       transform="matrix(0.26458333,0,0,0.26458333,-376.17174,86.471797)"
       aria-label="LIGHT" />
    <text
       xml:space="preserve"
       transform="matrix(0.26458333,0,0,0.26458333,-397.1928,44.138462)"
       id="text4"
       style="font-style:normal;font-variant:normal;font-weight:normal;font-stretch:normal;font-size:26.6667px;line-height:1.25;font-family:'BankGothic Lt BT';-inkscape-font-specification:'BankGothic Lt BT';text-align:center;white-space:pre;shape-inside:url(#rect6);display:inline"
       x="48.209698"
       y="0"><tspan
         x="729.5332"
         y="253.74026"
         id="tspan1">
</tspan></text>
    <g
       id="g7"
       transform="translate(-15.875,-37.041668)">
      <path
         id="rect3"
         style="fill:#37a75d;stroke:#449a61;stroke-width:0.2;stroke-linecap:round"
         d="m -215.7099,84.184525 h 22.57931 c 3.61201,0 6.51987,2.907861 6.51987,6.519869 V 113.2837 c 0,3.61201 -2.90786,6.51987 -6.51987,6.51987 h -22.57931 c -3.612,0 -6.51987,-2.90786 -6.51987,-6.51987 V 90.704394 c 0,-3.612008 2.90787,-6.519869 6.51987,-6.519869 z" />
      <path
         d="m -212.40757,142.15298 h -15.78124 v 9.66145 h 15.78124 q 1.71875,0 2.34375,-0.625 0.625,-0.625 0.625,-2.18749 v -4.01042 q 0,-1.5625 -0.65104,-2.1875 -0.625,-0.65104 -2.31771,-0.65104 z m -20.39061,23.95832 v -27.52603 h 22.18749 q 3.09895,0 4.45312,1.27605 1.38021,1.24999 1.38021,4.06249 v 6.14583 q 0,2.78646 -1.38021,4.0625 -1.35417,1.25 -4.45312,1.25 h -4.03646 l 12.57812,10.72916 h -6.82292 l -11.19791,-10.72916 h -8.09895 v 10.72916 z"
         id="text3"
         style="font-size:53.3333px;line-height:1.25;font-family:'BankGothic Lt BT';-inkscape-font-specification:'BankGothic Lt BT';white-space:pre"
         transform="matrix(0.26458333,0,0,0.26458333,-146.47064,61.685234)"
         aria-label="R&#10;" />
      <path
         d="m 617.89585,241.76108 h -7.89063 v 4.83074 h 7.89063 q 0.85938,0 1.17188,-0.3125 0.3125,-0.3125 0.3125,-1.09375 v -2.00521 q 0,-0.78126 -0.32552,-1.09376 -0.3125,-0.32552 -1.15886,-0.32552 z m -10.19532,11.97918 v -13.76303 h 11.09376 q 1.54948,0 2.22656,0.63802 0.69011,0.625 0.69011,2.03125 v 3.07292 q 0,1.39323 -0.69011,2.03125 -0.67708,0.625 -2.22656,0.625 h -2.01823 l 6.28907,5.36459 h -3.41146 l -5.59897,-5.36459 h -4.04948 v 5.36459 z m 20.32554,0 v -13.76303 h 13.25523 v 1.84896 h -10.95054 v 3.82813 h 6.69272 v 1.82292 h -6.69272 v 4.375 h 11.0547 v 1.88802 z m 30.57296,-11.88803 h -9.7396 v 3.84115 h 8.67189 q 1.83594,0 2.51302,0.67708 0.67708,0.67709 0.67708,2.56511 v 1.54948 q 0,1.90105 -0.66406,2.57813 -0.66406,0.67708 -2.52604,0.67708 h -8.03387 q -1.875,0 -2.55208,-0.67708 -0.67709,-0.69011 -0.67709,-2.57813 v -0.3776 l 2.13542,-0.4948 v 2.21355 h 10.24741 v -4.14063 h -8.64584 q -1.87501,0 -2.53907,-0.67709 -0.66406,-0.6901 -0.66406,-2.57812 v -1.19792 q 0,-1.88802 0.66406,-2.56511 0.66406,-0.6901 2.53907,-0.6901 h 7.33073 q 1.83594,0 2.52605,0.67708 0.70312,0.66406 0.70312,2.34375 v 0.28646 l -1.96614,0.5599 z m 14.41408,0 v 11.88803 h -2.29167 v -11.88803 h -6.28907 v -1.875 h 14.89585 v 1.875 z m 10.54688,6.7448 h 7.40887 l -3.71094,-7.04428 z m -4.98698,5.14323 7.51303,-13.76303 h 2.46094 l 7.64324,13.76303 h -2.52605 l -1.75781,-3.38542 h -9.30991 l -1.75781,3.38542 z m 32.26567,-11.97918 h -7.89064 v 4.83074 h 7.89064 q 0.85937,0 1.17187,-0.3125 0.3125,-0.3125 0.3125,-1.09375 v -2.00521 q 0,-0.78126 -0.32552,-1.09376 -0.3125,-0.32552 -1.15885,-0.32552 z m -10.19533,11.97918 v -13.76303 h 11.09376 q 1.54949,0 2.22657,0.63802 0.69011,0.625 0.69011,2.03125 v 3.07292 q 0,1.39323 -0.69011,2.03125 -0.67708,0.625 -2.22657,0.625 h -2.01823 l 6.28907,5.36459 h -3.41146 l -5.59896,-5.36459 h -4.04949 v 5.36459 z m 25.6641,-11.88803 v 11.88803 h -2.29167 v -11.88803 h -6.28907 v -1.875 h 14.89585 v 1.875 z"
         id="text5"
         style="font-size:26.6667px;line-height:1.25;font-family:'BankGothic Lt BT';-inkscape-font-specification:'BankGothic Lt BT';white-space:pre"
         transform="matrix(0.26458333,0,0,0.26458333,-381.73382,47.842628)"
         aria-label="RESTART" />
    </g>
  </g>
</svg>
