<?xml version="1.0" encoding="UTF-8" standalone="no"?>
<!-- Created with Inkscape (http://www.inkscape.org/) -->

<svg
   width="434.81076mm"
   height="109.90238mm"
   viewBox="0 0 434.81076 109.90238"
   version="1.1"
   id="svg1"
   inkscape:version="1.3.2 (091e20e, 2023-11-25, custom)"
   sodipodi:docname="dessin.svg"
   inkscape:export-filename="dessinexp.svg"
   inkscape:export-xdpi="46.222836"
   inkscape:export-ydpi="46.222836"
   xmlns:inkscape="http://www.inkscape.org/namespaces/inkscape"
   xmlns:sodipodi="http://sodipodi.sourceforge.net/DTD/sodipodi-0.dtd"
   xmlns="http://www.w3.org/2000/svg"
   xmlns:svg="http://www.w3.org/2000/svg">
  <sodipodi:namedview
     id="namedview1"
     pagecolor="#ffffff"
     bordercolor="#666666"
     borderopacity="1.0"
     inkscape:showpageshadow="2"
     inkscape:pageopacity="0.0"
     inkscape:pagecheckerboard="0"
     inkscape:deskcolor="#d1d1d1"
     inkscape:document-units="mm"
     inkscape:zoom="0.26615953"
     inkscape:cx="819.05766"
     inkscape:cy="373.83595"
     inkscape:window-width="1366"
     inkscape:window-height="745"
     inkscape:window-x="-8"
     inkscape:window-y="-8"
     inkscape:window-maximized="1"
     inkscape:current-layer="layer1"
     showgrid="false"
     showguides="true">
    <sodipodi:guide
       position="-121.30776,80.080039"
       orientation="1,0"
       id="guide7"
       inkscape:locked="false" />
    <sodipodi:guide
       position="78.50191,134.75433"
       orientation="0,-1"
       id="guide8"
       inkscape:locked="false" />
    <sodipodi:guide
       position="121.74431,136.74248"
       orientation="0,-1"
       id="guide9"
       inkscape:locked="false" />
  </sodipodi:namedview>
  <defs
     id="defs1">
    <rect
       x="-448.57211"
       y="154.39226"
       width="415.19"
       height="125.18291"
       id="rect65" />
    <rect
       x="-239.93391"
       y="118.92377"
       width="152.30588"
       height="104.3191"
       id="rect57" />
    <rect
       x="134.98947"
       y="47.209435"
       width="126.13771"
       height="61.962383"
       id="rect52" />
    <rect
       x="19.916479"
       y="367.34842"
       width="114.33535"
       height="49.422375"
       id="rect42" />
    <rect
       x="604.13324"
       y="230.146"
       width="141.6283"
       height="58.274143"
       id="rect34" />
    <rect
       x="120.48856"
       y="194.55511"
       width="192.46873"
       height="73.023369"
       id="rect33" />
    <rect
       x="180.58664"
       y="168.68752"
       width="124.59078"
       height="85.393684"
       id="rect2" />
    <rect
       x="180.15749"
       y="242.51968"
       width="152.44093"
       height="72.260963"
       id="rect18" />
    <rect
       x="227.67154"
       y="215.79303"
       width="168.27898"
       height="194.01575"
       id="rect17" />
    <rect
       x="227.67154"
       y="215.79303"
       width="168.27898"
       height="194.01575"
       id="rect19" />
    <rect
       x="227.67154"
       y="215.79303"
       width="168.27898"
       height="194.01575"
       id="rect20" />
    <rect
       x="227.67154"
       y="215.79303"
       width="168.27898"
       height="194.01575"
       id="rect21" />
    <rect
       x="227.67154"
       y="215.79303"
       width="168.27898"
       height="194.01575"
       id="rect22" />
    <rect
       x="227.67154"
       y="215.79303"
       width="168.27898"
       height="194.01575"
       id="rect23" />
    <rect
       x="227.67154"
       y="215.79303"
       width="168.27898"
       height="194.01575"
       id="rect24" />
    <rect
       x="227.67154"
       y="215.79303"
       width="168.27898"
       height="194.01575"
       id="rect25" />
    <rect
       x="227.67154"
       y="215.79303"
       width="168.27898"
       height="194.01575"
       id="rect26" />
    <rect
       x="227.67154"
       y="215.79303"
       width="168.27898"
       height="194.01575"
       id="rect27" />
    <rect
       x="227.67154"
       y="215.79303"
       width="168.27898"
       height="194.01575"
       id="rect29" />
    <rect
       x="120.48856"
       y="194.55511"
       width="192.46873"
       height="73.023369"
       id="rect33-7" />
    <rect
       x="120.48856"
       y="194.55511"
       width="192.46873"
       height="73.023369"
       id="rect33-4" />
    <rect
       x="120.48856"
       y="194.55511"
       width="192.46873"
       height="73.023369"
       id="rect33-4-6" />
    <rect
       x="120.48856"
       y="194.55511"
       width="192.46873"
       height="73.023369"
       id="rect35" />
    <rect
       x="120.48856"
       y="194.55511"
       width="192.46873"
       height="73.023369"
       id="rect36" />
    <rect
       x="120.48856"
       y="194.55511"
       width="192.46873"
       height="73.023369"
       id="rect37" />
    <rect
       x="120.48856"
       y="194.55511"
       width="192.46873"
       height="73.023369"
       id="rect38" />
    <rect
       x="120.48856"
       y="194.55511"
       width="192.46873"
       height="73.023369"
       id="rect39" />
    <rect
       x="120.48856"
       y="194.55511"
       width="192.46873"
       height="73.023369"
       id="rect40" />
    <rect
       x="120.48856"
       y="194.55511"
       width="192.46873"
       height="73.023369"
       id="rect41" />
    <rect
       x="19.916479"
       y="367.34842"
       width="114.33535"
       height="49.422375"
       id="rect43" />
    <rect
       x="120.48856"
       y="194.55511"
       width="192.46873"
       height="73.023369"
       id="rect44" />
    <rect
       x="120.48856"
       y="194.55511"
       width="192.46873"
       height="73.023369"
       id="rect45" />
    <rect
       x="120.48856"
       y="194.55511"
       width="192.46873"
       height="73.023369"
       id="rect46" />
    <rect
       x="19.916479"
       y="367.34842"
       width="114.33535"
       height="49.422375"
       id="rect47" />
    <rect
       x="120.48856"
       y="194.55511"
       width="192.46873"
       height="73.023369"
       id="rect36-8" />
    <rect
       x="604.13324"
       y="230.146"
       width="141.6283"
       height="58.274143"
       id="rect34-5" />
    <rect
       x="-239.93391"
       y="118.92377"
       width="152.30588"
       height="104.3191"
       id="rect59" />
    <rect
       x="604.13324"
       y="230.146"
       width="141.6283"
       height="58.274143"
       id="rect60" />
    <rect
       x="-239.93391"
       y="118.92377"
       width="152.30588"
       height="104.3191"
       id="rect62" />
    <rect
       x="604.13324"
       y="230.146"
       width="141.6283"
       height="58.274143"
       id="rect63" />
    <rect
       x="604.13324"
       y="230.146"
       width="141.6283"
       height="58.274143"
       id="rect63-3" />
    <rect
       x="604.13324"
       y="230.146"
       width="141.6283"
       height="58.274143"
       id="rect72" />
    <rect
       x="-239.93391"
       y="118.92377"
       width="152.30588"
       height="104.3191"
       id="rect75" />
    <rect
       x="604.13324"
       y="230.146"
       width="250.80013"
       height="115.81064"
       id="rect76" />
    <rect
       x="604.13324"
       y="230.146"
       width="141.6283"
       height="58.274143"
       id="rect77" />
    <rect
       x="-448.57211"
       y="154.39226"
       width="415.19"
       height="125.18291"
       id="rect81" />
    <rect
       x="-448.57211"
       y="154.39226"
       width="415.19"
       height="125.18291"
       id="rect82" />
    <rect
       x="-448.57211"
       y="154.39226"
       width="415.19"
       height="125.18291"
       id="rect83" />
    <rect
       x="-239.93391"
       y="118.92377"
       width="223.69164"
       height="228.30489"
       id="rect5" />
    <rect
       x="604.13324"
       y="230.146"
       width="250.80013"
       height="115.81064"
       id="rect6" />
    <rect
       x="604.13324"
       y="230.146"
       width="391.47845"
       height="236.73854"
       id="rect7" />
  </defs>
  <g
     inkscape:label="Calque 1"
     inkscape:groupmode="layer"
     id="layer1"
     transform="translate(238.20477,-47.042857)">
    <rect
       style="fill:#34362e;fill-opacity:1;fill-rule:nonzero;stroke:#cf0000;stroke-width:0.135289;stroke-linecap:round"
       id="rect84"
       width="41.829426"
       height="13.878891"
       x="-30.565386"
       y="142.24229"
       ry="2.5404544" />
    <rect
       style="opacity:1;fill:#37a75d;fill-opacity:1;stroke:#cf0000;stroke-width:0.2;stroke-linecap:round"
       id="rect1"
       width="35.619045"
       height="35.619045"
       x="49.761906"
       y="47.142857"
       ry="6.5198698" />
    <rect
       style="fill:#449a61;fill-opacity:1;stroke:#cf0000;stroke-width:0.2;stroke-linecap:round"
       id="use10"
       width="35.619045"
       height="35.619045"
       x="86.803574"
       y="47.142857"
       ry="6.5198698" />
    <rect
       style="fill:#6d863b;fill-opacity:1;stroke:#cf0000;stroke-width:0.2;stroke-linecap:round"
       id="use11"
       width="35.619045"
       height="35.619045"
       x="123.84525"
       y="47.142857"
       ry="6.5198698" />
    <rect
       style="fill:#449a61;fill-opacity:1;stroke:#449a61;stroke-width:0.2;stroke-linecap:round;stroke-opacity:1"
       id="use12"
       width="35.619045"
       height="35.619045"
       x="49.761906"
       y="84.184525"
       ry="6.5198698" />
    <rect
       style="fill:#37a75d;fill-opacity:1;stroke:none;stroke-width:0.2;stroke-linecap:round"
       id="use13"
       width="35.619045"
       height="35.619045"
       x="86.803574"
       y="84.184525"
       ry="6.5198698" />
    <rect
       style="fill:#449a61;fill-opacity:1;stroke:#cf0000;stroke-width:0.2;stroke-linecap:round"
       id="use14"
       width="35.619045"
       height="35.619045"
       x="123.84525"
       y="84.184525"
       ry="6.5198698" />
    <rect
       style="fill:#37a75d;fill-opacity:1;stroke:#449a61;stroke-width:0.2;stroke-linecap:round;stroke-opacity:1"
       id="use15"
       width="35.619045"
       height="35.619045"
       x="49.761906"
       y="121.2262"
       ry="6.5198698" />
    <rect
       style="fill:#4a9463;fill-opacity:1;stroke:#cf0000;stroke-width:0.2;stroke-linecap:round"
       id="use16"
       width="35.619045"
       height="35.619045"
       x="86.803574"
       y="121.2262"
       ry="6.5198698" />
    <rect
       style="fill:#6d863b;fill-opacity:1;fill-rule:nonzero;stroke:#cf0000;stroke-width:0.2;stroke-linecap:round"
       id="use17"
       width="35.619045"
       height="35.619045"
       x="123.84525"
       y="121.2262"
       ry="6.5198698" />
    <text
       xml:space="preserve"
       transform="matrix(0.26458333,0,0,0.26458333,-8.2703042,-8.1425542)"
       id="text17"
       style="font-size:26.6667px;line-height:1.25;font-family:sans-serif;white-space:pre;shape-inside:url(#rect17);display:inline"><tspan
         x="227.67188"
         y="239.38675"
         id="tspan1">7
</tspan></text>
    <text
       xml:space="preserve"
       transform="matrix(0.26458333,0,0,0.26458333,28.771364,-8.1425542)"
       id="text19"
       style="font-size:26.6667px;line-height:1.25;font-family:sans-serif;white-space:pre;shape-inside:url(#rect19);display:inline"><tspan
         x="227.67188"
         y="239.38675"
         id="tspan2">8
</tspan></text>
    <text
       xml:space="preserve"
       transform="matrix(0.26458333,0,0,0.26458333,65.813033,-8.1425542)"
       id="text20"
       style="font-size:26.6667px;line-height:1.25;font-family:sans-serif;white-space:pre;shape-inside:url(#rect20);display:inline"><tspan
         x="227.67188"
         y="239.38675"
         id="tspan6">9
</tspan></text>
    <text
       xml:space="preserve"
       transform="matrix(0.26458333,0,0,0.26458333,-8.2703042,28.899114)"
       id="text21"
       style="font-size:26.6667px;line-height:1.25;font-family:sans-serif;white-space:pre;shape-inside:url(#rect21);display:inline"><tspan
         x="227.67188"
         y="239.38675"
         id="tspan7">4
</tspan></text>
    <text
       xml:space="preserve"
       transform="matrix(0.26458333,0,0,0.26458333,28.771364,28.899114)"
       id="text22"
       style="font-size:26.6667px;line-height:1.25;font-family:sans-serif;white-space:pre;shape-inside:url(#rect22);display:inline"><tspan
         x="227.67188"
         y="239.38675"
         id="tspan8">5
</tspan></text>
    <text
       xml:space="preserve"
       transform="matrix(0.26458333,0,0,0.26458333,65.813033,28.899114)"
       id="text24"
       style="font-size:26.6667px;line-height:1.25;font-family:sans-serif;white-space:pre;shape-inside:url(#rect24);display:inline"><tspan
         x="227.67188"
         y="239.38675"
         id="tspan9">6
</tspan></text>
    <text
       xml:space="preserve"
       transform="matrix(0.26458333,0,0,0.26458333,65.813033,65.940783)"
       id="text25"
       style="font-size:26.6667px;line-height:1.25;font-family:sans-serif;white-space:pre;shape-inside:url(#rect25);display:inline"><tspan
         x="227.67188"
         y="239.38675"
         id="tspan10">3
</tspan></text>
    <text
       xml:space="preserve"
       transform="matrix(0.26458333,0,0,0.26458333,28.771364,65.940783)"
       id="text26"
       style="font-size:26.6667px;line-height:1.25;font-family:sans-serif;white-space:pre;shape-inside:url(#rect26);display:inline"><tspan
         x="227.67188"
         y="239.38675"
         id="tspan11">2
</tspan></text>
    <text
       xml:space="preserve"
       transform="matrix(0.26458333,0,0,0.26458333,-8.2703038,65.940783)"
       id="text27"
       style="font-size:26.6667px;line-height:1.25;font-family:sans-serif;white-space:pre;shape-inside:url(#rect27);display:inline"><tspan
         x="227.67188"
         y="239.38675"
         id="tspan12">1
</tspan></text>
    <path
       style="fill:#000000;fill-opacity:1;stroke:#000000;stroke-width:0.0773255px;stroke-linecap:butt;stroke-linejoin:miter;stroke-opacity:1"
       d="m 146.26738,101.99479 c -3.12341,1.4555 -6.25449,2.87265 -9.27909,4.8222 v -9.644393 c 2.96709,1.986534 6.04953,3.356243 9.27909,4.822193 z"
       id="path33"
       sodipodi:nodetypes="cccc" />
    <path
       style="fill:#000000;fill-opacity:1;stroke:#000000;stroke-width:0.0757428px;stroke-linecap:butt;stroke-linejoin:miter;stroke-opacity:1"
       d="m 63.146082,101.99482 c 2.995939,1.45593 5.999229,2.87351 8.900389,4.82364 v -9.64728 c -2.845998,1.987128 -5.802638,3.35725 -8.900389,4.82364 z"
       id="path1"
       sodipodi:nodetypes="cccc" />
    <path
       style="fill:#000000;fill-opacity:1;stroke:#000000;stroke-width:0.0757428px;stroke-linecap:butt;stroke-linejoin:miter;stroke-opacity:1"
       d="m 104.61233,60.527035 c -1.45594,2.995938 -2.87351,5.999229 -4.823641,8.900385 h 9.647271 c -1.98712,-2.845992 -3.35725,-5.802635 -4.82363,-8.900385 z"
       id="path1-6"
       sodipodi:nodetypes="cccc" />
    <path
       style="fill:#000000;fill-opacity:1;stroke:#000000;stroke-width:0.0786884px;stroke-linecap:butt;stroke-linejoin:miter;stroke-opacity:1"
       d="m 104.61389,143.63315 c 1.51255,-3.11243 2.98525,-6.23252 5.01121,-9.24649 H 99.602691 c 2.064389,2.95666 3.487799,6.02828 5.011199,9.24649 z"
       id="path2"
       sodipodi:nodetypes="cccc" />
    <text
       xml:space="preserve"
       transform="matrix(0.26458333,0,0,0.26458333,42.467028,48.518592)"
       id="text2"
       style="font-style:normal;font-variant:normal;font-weight:normal;font-stretch:normal;font-size:53.3333px;line-height:1.25;font-family:'BankGothic Lt BT';-inkscape-font-specification:'BankGothic Lt BT';white-space:pre;shape-inside:url(#rect2);display:inline"><tspan
         x="180.58594"
         y="215.87497"
         id="tspan13">Rst</tspan></text>
    <g
       id="g12"
       transform="matrix(0.63876934,0,0,0.63876934,51.292309,23.697678)">
      <path
         style="fill:#000000;fill-opacity:1;stroke:#000000;stroke-width:0.118576px;stroke-linecap:butt;stroke-linejoin:miter;stroke-opacity:1"
         d="m 141.46216,52.47161 c -2.27929,4.690173 -4.49851,9.391856 -7.55146,13.933646 h 15.1029 c -3.11086,-4.45543 -5.25581,-9.084085 -7.55144,-13.933646 z"
         id="path1-6-5"
         sodipodi:nodetypes="cccc" />
      <rect
         style="opacity:1;fill:#000000;fill-opacity:1;stroke:none;stroke-width:0.2;stroke-linecap:round"
         id="rect11"
         width="4.0742817"
         height="21.112188"
         x="139.42622"
         y="55.72261"
         ry="0.75796562" />
    </g>
    <g
       id="g13"
       transform="matrix(-0.67227592,0,0,-0.67227592,236.75717,182.45443)">
      <path
         style="fill:#000000;fill-opacity:1;stroke:#000000;stroke-width:0.118576px;stroke-linecap:butt;stroke-linejoin:miter;stroke-opacity:1"
         d="m 141.46216,52.47161 c -2.27929,4.690173 -4.49851,9.391856 -7.55146,13.933646 h 15.1029 c -3.11086,-4.45543 -5.25581,-9.084085 -7.55144,-13.933646 z"
         id="path12"
         sodipodi:nodetypes="cccc" />
      <rect
         style="opacity:1;fill:#000000;fill-opacity:1;stroke:none;stroke-width:0.2;stroke-linecap:round"
         id="rect12"
         width="4.0742817"
         height="21.112188"
         x="139.42622"
         y="55.72261"
         ry="0.75796562" />
    </g>
    <path
       style="fill:#000000;fill-opacity:1;stroke:#000000;stroke-width:0.0757428px;stroke-linecap:butt;stroke-linejoin:miter;stroke-opacity:1"
       d="m 62.795984,60.02271 c 0.912714,3.203493 1.858925,6.386879 2.340151,9.84927 l 7.189414,-6.432894 c -3.378593,-0.795881 -6.37117,-2.085639 -9.529565,-3.416376 z"
       id="path13"
       sodipodi:nodetypes="cccc" />
    <path
       style="fill:#000000;fill-opacity:1;stroke:#000000;stroke-width:0.0821054px;stroke-linecap:butt;stroke-linejoin:miter;stroke-opacity:1"
       d="m 62.641494,144.48625 c 3.15956,-1.74791 6.289676,-3.52627 9.828241,-4.88189 l -8.552876,-6.01766 c -0.01354,3.76265 -0.643104,7.23853 -1.275365,10.89955 z"
       id="path14"
       sodipodi:nodetypes="cccc" />
    <text
       xml:space="preserve"
       transform="matrix(0.26458333,0,0,0.26458333,105.1402,20.195575)"
       id="text32-3"
       style="font-style:normal;font-variant:normal;font-weight:normal;font-stretch:normal;font-size:26.6667px;line-height:1.25;font-family:'BankGothic Lt BT';-inkscape-font-specification:'BankGothic Lt BT';white-space:pre;shape-inside:url(#rect33-4);display:inline"><tspan
         x="120.48828"
         y="218.14847"
         id="tspan14">up</tspan></text>
    <path
       style="fill:#000000;fill-opacity:1;stroke:#000000;stroke-width:0.0602936px;stroke-linecap:butt;stroke-linejoin:miter;stroke-opacity:1"
       d="m -9.6862703,155.30024 c 1.517466,-1.82143 2.9949527,-3.64734 5.0274978,-5.41114 H -14.713758 c 2.071099,1.73027 3.499136,3.52781 5.0274877,5.41114 z"
       id="path32"
       sodipodi:nodetypes="cccc" />
    <rect
       style="fill:#34362e;fill-opacity:1;fill-rule:nonzero;stroke:#cf0000;stroke-width:0.135289;stroke-linecap:round"
       id="rect32"
       width="41.829426"
       height="13.878891"
       x="-30.565386"
       y="126.36729"
       ry="2.5404544" />
    <text
       xml:space="preserve"
       transform="matrix(0.26458333,0,0,0.26458333,-60.587855,80.624045)"
       id="text32"
       style="font-style:normal;font-variant:normal;font-weight:normal;font-stretch:normal;font-size:26.6667px;line-height:1.25;font-family:'BankGothic Lt BT';-inkscape-font-specification:'BankGothic Lt BT';white-space:pre;shape-inside:url(#rect33);display:inline"><tspan
         x="120.48828"
         y="218.14847"
         id="tspan15">FORWARD</tspan></text>
    <text
       xml:space="preserve"
       transform="matrix(0.26458333,0,0,0.26458333,-52.452761,90.435914)"
       id="text32-2"
       style="font-style:normal;font-variant:normal;font-weight:normal;font-stretch:normal;font-size:26.6667px;line-height:1.25;font-family:'BankGothic Lt BT';-inkscape-font-specification:'BankGothic Lt BT';white-space:pre;shape-inside:url(#rect33-7);display:inline"><tspan
         x="120.48828"
         y="218.14847"
         id="tspan16">BACK</tspan></text>
    <text
       xml:space="preserve"
       transform="matrix(0.26458333,0,0,0.26458333,-63.598522,48.349411)"
       id="text33"
       style="font-style:normal;font-variant:normal;font-weight:normal;font-stretch:normal;font-size:26.6667px;line-height:1.25;font-family:'BankGothic Lt BT';-inkscape-font-specification:'BankGothic Lt BT';white-space:pre;shape-inside:url(#rect34);display:inline"><tspan
         x="604.13281"
         y="253.74026"
         id="tspan17">CAM</tspan></text>
    <text
       xml:space="preserve"
       transform="matrix(0.26458333,0,0,0.26458333,56.914007,20.195575)"
       id="text35"
       style="font-style:normal;font-variant:normal;font-weight:normal;font-stretch:normal;font-size:26.6667px;line-height:1.25;font-family:'BankGothic Lt BT';-inkscape-font-specification:'BankGothic Lt BT';white-space:pre;shape-inside:url(#rect35);display:inline"><tspan
         x="120.48828"
         y="218.14847"
         id="tspan18">rotate y</tspan></text>
    <text
       xml:space="preserve"
       transform="matrix(0.26458333,0,0,0.26458333,19.953319,20.195575)"
       id="text36"
       style="font-style:normal;font-variant:normal;font-weight:normal;font-stretch:normal;font-size:26.6667px;line-height:1.25;font-family:'BankGothic Lt BT';-inkscape-font-specification:'BankGothic Lt BT';white-space:pre;shape-inside:url(#rect36);display:inline"><tspan
         x="120.48828"
         y="218.14847"
         id="tspan19">rotate z</tspan></text>
    <text
       xml:space="preserve"
       transform="matrix(0.26458333,0,0,0.26458333,19.953299,94.482529)"
       id="text38"
       style="font-style:normal;font-variant:normal;font-weight:normal;font-stretch:normal;font-size:26.6667px;line-height:1.25;font-family:'BankGothic Lt BT';-inkscape-font-specification:'BankGothic Lt BT';white-space:pre;shape-inside:url(#rect38);display:inline"><tspan
         x="120.48828"
         y="218.14847"
         id="tspan20">rotate z</tspan></text>
    <text
       xml:space="preserve"
       transform="matrix(0.26458333,0,0,0.26458333,19.762096,57.440845)"
       id="text40"
       style="font-style:normal;font-variant:normal;font-weight:normal;font-stretch:normal;font-size:26.6667px;line-height:1.25;font-family:'BankGothic Lt BT';-inkscape-font-specification:'BankGothic Lt BT';white-space:pre;shape-inside:url(#rect40);display:inline"><tspan
         x="120.48828"
         y="218.14847"
         id="tspan21">rotate x</tspan></text>
    <g
       id="g48"
       transform="translate(4.2333335)">
      <rect
         style="fill:#449a61;fill-opacity:1;stroke:none;stroke-width:0.169828;stroke-linecap:round"
         id="rect30"
         width="35.619045"
         height="25.682652"
         x="7.4284229"
         y="128.13448"
         ry="4.7010679" />
      <path
         style="fill:#000000;fill-opacity:1;stroke:#000000;stroke-width:0.0773255px;stroke-linecap:butt;stroke-linejoin:miter;stroke-opacity:1"
         d="m 29.85056,140.97655 c -3.12341,1.4555 -6.25449,2.87265 -9.27909,4.8222 v -9.6444 c 2.96709,1.98654 6.04953,3.35625 9.27909,4.8222 z"
         id="path30"
         sodipodi:nodetypes="cccc" />
      <text
         xml:space="preserve"
         transform="matrix(0.26458333,0,0,0.26458333,9.9432591,48.630355)"
         id="text43"
         style="font-style:normal;font-variant:normal;font-weight:normal;font-stretch:normal;font-size:26.6667px;line-height:1.25;font-family:'BankGothic Lt BT';-inkscape-font-specification:'BankGothic Lt BT';white-space:pre;shape-inside:url(#rect43);display:inline"><tspan
           x="19.916016"
           y="390.94144"
           id="tspan22">right</tspan></text>
    </g>
    <text
       xml:space="preserve"
       transform="matrix(0.26458333,0,0,0.26458333,56.994967,94.482529)"
       id="text44"
       style="font-style:normal;font-variant:normal;font-weight:normal;font-stretch:normal;font-size:26.6667px;line-height:1.25;font-family:'BankGothic Lt BT';-inkscape-font-specification:'BankGothic Lt BT';white-space:pre;shape-inside:url(#rect44);display:inline"><tspan
         x="120.48828"
         y="218.14847"
         id="tspan23">rotate Y</tspan></text>
    <text
       xml:space="preserve"
       transform="matrix(0.26458333,0,0,0.26458333,97.922719,94.482529)"
       id="text45"
       style="font-style:normal;font-variant:normal;font-weight:normal;font-stretch:normal;font-size:26.6667px;line-height:1.25;font-family:'BankGothic Lt BT';-inkscape-font-specification:'BankGothic Lt BT';white-space:pre;shape-inside:url(#rect45);display:inline"><tspan
         x="120.48828"
         y="218.14847"
         id="tspan24">DOWN</tspan></text>
    <text
       xml:space="preserve"
       transform="matrix(0.26458333,0,0,0.26458333,93.845434,57.440845)"
       id="text46"
       style="font-style:normal;font-variant:normal;font-weight:normal;font-stretch:normal;font-size:26.6667px;line-height:1.25;font-family:'BankGothic Lt BT';-inkscape-font-specification:'BankGothic Lt BT';white-space:pre;shape-inside:url(#rect46);display:inline"><tspan
         x="120.48828"
         y="218.14847"
         id="tspan25">rotate x</tspan></text>
    <g
       id="g49">
      <rect
         style="fill:#449a61;fill-opacity:1;stroke:#449a61;stroke-width:0.168174;stroke-linecap:round;stroke-opacity:1"
         id="rect28"
         width="35.650871"
         height="25.162455"
         x="-66.670837"
         y="128.57059"
         ry="4.6058488" />
      <path
         style="fill:#000000;fill-opacity:1;stroke:#000000;stroke-width:0.0757428px;stroke-linecap:butt;stroke-linejoin:miter;stroke-opacity:1"
         d="m -53.270746,141.15259 c 2.995939,1.45593 5.999229,2.87351 8.900389,4.82364 v -9.6473 c -2.845998,1.98714 -5.802638,3.35727 -8.900389,4.82366 z"
         id="path28"
         sodipodi:nodetypes="cccc" />
      <text
         xml:space="preserve"
         transform="matrix(0.26458333,0,0,0.26458333,-63.838641,48.630355)"
         id="text47"
         style="font-style:normal;font-variant:normal;font-weight:normal;font-stretch:normal;font-size:26.6667px;line-height:1.25;font-family:'BankGothic Lt BT';-inkscape-font-specification:'BankGothic Lt BT';white-space:pre;shape-inside:url(#rect47);display:inline"><tspan
           x="19.916016"
           y="390.94144"
           id="tspan26">LEFT</tspan></text>
    </g>
    <path
       style="fill:#000000;fill-opacity:1;stroke:#000000;stroke-width:0.0564369px;stroke-linecap:butt;stroke-linejoin:miter;stroke-opacity:1"
       d="m -9.4930013,127.22584 c -1.4204017,1.70492 -2.8033827,3.41404 -4.7059187,5.06503 h 9.4118277 c -1.938623,-1.6196 -3.2753169,-3.30216 -4.705909,-5.06503 z"
       id="path50"
       sodipodi:nodetypes="cccc" />
    <g
       id="g54"
       transform="matrix(0.65206518,0,0,0.65206518,18.60443,35.022446)"
       style="fill:#34362e;fill-opacity:1">
      <rect
         style="fill:#34362e;fill-opacity:1;stroke:none;stroke-width:0.127754;stroke-linecap:round"
         id="rect11-6"
         width="2.6025262"
         height="13.485819"
         x="28.649736"
         y="67.19873"
         ry="0.48416519" />
      <rect
         style="fill:#34362e;fill-opacity:1;stroke:none;stroke-width:0.127754;stroke-linecap:round"
         id="rect11-6-1"
         width="2.6025262"
         height="13.485819"
         x="72.592827"
         y="-36.539249"
         ry="0.48416519"
         transform="rotate(90)" />
    </g>
    <rect
       style="fill:#34362e;fill-opacity:1;stroke:none;stroke-width:0.0833039;stroke-linecap:round"
       id="rect11-6-1-6"
       width="1.6970167"
       height="8.7936325"
       x="82.38871"
       y="-15.857454"
       ry="0.31570727"
       transform="rotate(90)" />
    <path
       sodipodi:type="star"
       style="fill:#34362e;fill-opacity:1;fill-rule:nonzero;stroke:none;stroke-width:0.2;stroke-linecap:round;stroke-opacity:1"
       id="path52"
       inkscape:flatsided="false"
       sodipodi:sides="30"
       sodipodi:cx="63.437675"
       sodipodi:cy="28.030602"
       sodipodi:r1="106.73225"
       sodipodi:r2="94.543167"
       sodipodi:arg1="0.8636693"
       sodipodi:arg2="0.90844006"
       inkscape:rounded="0"
       inkscape:randomized="-0.021141142"
       d="m 130.91639,108.38959 -11.45772,-6.32377 -3.3563,18.57219 -11.68721,-7.65126 -8.653726,19.37332 -10.806702,-13.37087 -13.229642,13.24859 -6.148938,-9.59535 -14.581981,11.93893 -4.756313,-13.88687 -16.615096,6.15361 -1.986327,-11.36734 -21.7866113,2.2461 5.5884423,-13.217 -22.83721,1.12744 5.4725954,-10.493383 -17.2133154,-8.331441 6.658312,-7.278767 -17.211289,-11.960706 9.292311,-7.023878 -14.951854,-12.403315 9.302346,-5.901354 -13.912785,-15.936235 13.075729,-6.660623 -11.504033,-15.5019401 16.952691,-0.8273089 -9.169804,-21.388742 16.457564,0.120955 -2.877167,-16.847017 10.407454,-0.186809 6.2504406,-16.832048 8.8268149,3.804058 7.7948665,-15.784185 11.518242,7.293159 8.897011,-17.290341 6.293819,8.857984 17.742598,-12.748904 1.561667,11.883666 19.169252,-14.227242 3.517315,15.32416 17.854022,-8.090594 1.986331,11.367339 17.03051,0.683495 -0.90666,8.562531 21.27268,4.200764 -5.47259,10.493379 17.21331,3.818557 -7.82292,10.940627 18.20693,7.940744 -9.12334,11.8948642 19.38578,10.2885765 -13.81516,6.4010423 13.66957,18.865826 -12.75827,0.443339 11.26082,18.431531 -16.70948,2.410601 8.25777,18.887536 -15.54088,-1.742772 2.87724,21.859588 -10.40753,-4.825763 z"
       transform="matrix(0.19402997,0,0,0.19402997,11.467094,98.818133)"
       inkscape:transform-center-x="0.025425505"
       inkscape:transform-center-y="-0.14619167" />
    <g
       id="g53"
       transform="translate(-7.6285346e-8,2.1166667)">
      <text
         xml:space="preserve"
         transform="matrix(0.26458333,0,0,0.26458333,-33.837049,41.686607)"
         id="text36-7"
         style="font-style:normal;font-variant:normal;font-weight:normal;font-stretch:normal;font-size:26.6667px;line-height:1.25;font-family:'BankGothic Lt BT';-inkscape-font-specification:'BankGothic Lt BT';text-align:center;white-space:pre;shape-inside:url(#rect36-8);display:inline"
         x="81.093857"
         y="0"><tspan
           x="157.36711"
           y="218.14847"
           id="tspan27">SCROLL
</tspan><tspan
           x="172.85541"
           y="251.48184"
           id="tspan28">ZOOM
</tspan></text>
      <text
         xml:space="preserve"
         transform="matrix(0.26458333,0,0,0.26458333,-20.199476,85.081551)"
         id="text52"
         style="font-style:normal;font-variant:normal;font-weight:normal;font-stretch:normal;font-size:26.6667px;line-height:1.25;font-family:'BankGothic Lt BT';-inkscape-font-specification:'BankGothic Lt BT';white-space:pre;shape-inside:url(#rect52);display:inline"><tspan
           x="134.99023"
           y="70.802764"
           id="tspan29">FOR</tspan></text>
    </g>
    <g
       id="g78"
       transform="translate(5.2916663)">
      <g
         id="g64"
         transform="translate(34.925)">
        <rect
           style="fill:#37a75d;fill-opacity:1;stroke:#449a61;stroke-width:0.2;stroke-linecap:round;stroke-opacity:1"
           id="rect58"
           width="35.619045"
           height="35.619045"
           x="-151.32141"
           y="121.2262"
           ry="6.5198698" />
        <text
           xml:space="preserve"
           transform="matrix(0.26458333,0,0,0.26458333,-75.56229,98.726902)"
           id="text58"
           style="font-style:normal;font-variant:normal;font-weight:normal;font-stretch:normal;font-size:53.3333px;line-height:1.25;font-family:'BankGothic Lt BT';-inkscape-font-specification:'BankGothic Lt BT';white-space:pre;shape-inside:url(#rect59);display:inline"><tspan
             x="-239.93359"
             y="166.1113"
             id="tspan30">O</tspan></text>
        <text
           xml:space="preserve"
           transform="matrix(0.26458333,0,0,0.26458333,-309.04951,84.355132)"
           id="text59"
           style="font-style:normal;font-variant:normal;font-weight:normal;font-stretch:normal;font-size:26.6667px;line-height:1.25;font-family:'BankGothic Lt BT';-inkscape-font-specification:'BankGothic Lt BT';white-space:pre;shape-inside:url(#rect60);display:inline"><tspan
             x="604.13281"
             y="253.74026"
             id="tspan31">OBJECT</tspan></text>
      </g>
    </g>
    <g
       id="g65"
       transform="translate(-76.200003)">
      <g
         id="g57">
        <rect
           style="fill:#37a75d;fill-opacity:1;stroke:#449a61;stroke-width:0.2;stroke-linecap:round;stroke-opacity:1"
           id="rect56"
           width="35.619045"
           height="35.619045"
           x="-108.98808"
           y="121.2262"
           ry="6.5198698" />
        <text
           xml:space="preserve"
           transform="matrix(0.26458333,0,0,0.26458333,-33.228955,98.726902)"
           id="text56"
           style="font-style:normal;font-variant:normal;font-weight:normal;font-stretch:normal;font-size:53.3333px;line-height:1.25;font-family:'BankGothic Lt BT';-inkscape-font-specification:'BankGothic Lt BT';white-space:pre;shape-inside:url(#rect57);display:inline"><tspan
             x="-239.93359"
             y="166.1113"
             id="tspan32">C</tspan></text>
        <text
           xml:space="preserve"
           transform="matrix(0.26458333,0,0,0.26458333,-259.39018,84.355132)"
           id="text33-0"
           style="font-style:normal;font-variant:normal;font-weight:normal;font-stretch:normal;font-size:26.6667px;line-height:1.25;font-family:'BankGothic Lt BT';-inkscape-font-specification:'BankGothic Lt BT';white-space:pre;shape-inside:url(#rect34-5);display:inline"><tspan
             x="604.13281"
             y="253.74026"
             id="tspan33">CAM</tspan></text>
      </g>
    </g>
    <g
       id="g80"
       transform="translate(10.583333)">
      <rect
         style="fill:#37a75d;fill-opacity:1;stroke:#449a61;stroke-width:0.2;stroke-linecap:round;stroke-opacity:1"
         id="rect61"
         width="35.619045"
         height="35.619045"
         x="-158.72975"
         y="121.2262"
         ry="6.5198698" />
      <g
         id="g79">
        <text
           xml:space="preserve"
           transform="matrix(0.26458333,0,0,0.26458333,-82.97063,98.726902)"
           id="text61"
           style="font-style:normal;font-variant:normal;font-weight:normal;font-stretch:normal;font-size:53.3333px;line-height:1.25;font-family:'BankGothic Lt BT';-inkscape-font-specification:'BankGothic Lt BT';white-space:pre;shape-inside:url(#rect62);display:inline"><tspan
             x="-239.93359"
             y="166.1113"
             id="tspan34">L</tspan></text>
        <text
           xml:space="preserve"
           transform="matrix(0.26458333,0,0,0.26458333,-312.67169,84.355132)"
           id="text62"
           style="font-style:normal;font-variant:normal;font-weight:normal;font-stretch:normal;font-size:26.6667px;line-height:1.25;font-family:'BankGothic Lt BT';-inkscape-font-specification:'BankGothic Lt BT';white-space:pre;shape-inside:url(#rect63);display:inline"><tspan
             x="604.13281"
             y="253.74026"
             id="tspan35">LIGHT</tspan></text>
      </g>
    </g>
    <path
       d="m -164.22663,99.892323 h -3.34923 v 3.500007 h 3.34923 v -1.21084 l 0.80874,0.16906 v 0.57115 q 0,0.66711 -0.23303,0.9047 -0.23302,0.2376 -0.89099,0.2376 h -2.70496 q -0.65797,0 -0.89557,-0.2376 -0.23759,-0.24216 -0.23759,-0.9047 v -2.54504 q 0,-0.662527 0.23759,-0.900127 0.2376,-0.242167 0.89557,-0.242167 h 2.70496 q 0.65797,0 0.89099,0.237597 0.23303,0.2376 0.23303,0.904697 v 0.45692 l -0.80874,0.15078 z m 2.92885,4.171677 v -4.829634 h 0.80875 v 1.973884 h 3.80614 v -1.973884 h 0.80418 V 104.064 h -0.80418 v -2.18864 h -3.80614 v 2.18864 z m 8.73631,-1.80483 h 2.59987 l -1.30222,-2.471937 z m -1.75001,1.80483 2.63643,-4.829634 h 0.86358 l 2.68212,4.829634 h -0.88643 l -0.61684,-1.18799 h -3.26697 l -0.61685,1.18799 z m 7.7448,0 v -4.829634 h 0.50717 l 3.61424,3.230414 q 0.12337,0.10966 0.26044,0.26502 0.14165,0.15535 0.28786,0.34268 -0.0365,-0.23302 -0.0548,-0.48433 -0.0183,-0.25587 -0.0183,-0.70366 v -2.650124 h 0.74021 V 104.064 h -0.45235 l -3.71019,-3.35836 q -0.0274,-0.0228 -0.0822,-0.0731 -0.27416,-0.24674 -0.40666,-0.47063 0.0274,0.21932 0.0411,0.47063 0.0137,0.24673 0.0137,0.58485 v 2.84661 z m 12.36424,-4.171677 h -3.78329 v 3.500007 h 3.78329 v -1.41645 h -1.95562 v -0.61684 h 2.7598 v 1.56266 q 0,0.66254 -0.2376,0.9047 -0.2376,0.2376 -0.89556,0.2376 h -3.12533 q -0.66254,0 -0.90013,-0.24217 -0.23303,-0.24216 -0.23303,-0.90013 v -2.54504 q 0,-0.657957 0.23303,-0.900127 0.23759,-0.242167 0.90013,-0.242167 h 3.12533 q 0.64883,0 0.89099,0.237597 0.24217,0.23303 0.24217,0.849867 v 0.1188 l -0.80418,0.15992 z m 3.12076,4.171677 v -4.829634 h 4.65144 v 0.648827 h -3.84269 v 1.343337 h 2.34857 v 0.63969 h -2.34857 v 1.53525 h 3.87925 v 0.66253 z m 10.75589,-3.96606 q 0.0183,0.14165 0.0274,0.297 0.009,0.15535 0.009,0.41122 v 3.25784 h -0.68538 v -4.829634 h 0.65797 l 2.34856,3.143604 2.18865,-3.143604 h 0.74021 V 104.064 h -0.74021 v -3.25784 q 0,-0.064 0.0137,-0.31984 0.0183,-0.26044 0.0228,-0.38838 -0.0914,0.18734 -0.16449,0.31527 -0.0685,0.12794 -0.12337,0.20562 l -1.84595,2.68669 h -0.20562 l -1.91906,-2.61359 q -0.005,-0.005 -0.0228,-0.032 -0.21019,-0.28786 -0.30157,-0.56201 z m 8.53983,3.29439 h 3.99805 v -3.500007 h -3.99805 z m -0.80418,-3.01567 q 0,-0.657957 0.23303,-0.900127 0.2376,-0.242167 0.90013,-0.242167 h 3.34008 q 0.6534,0 0.88643,0.242167 0.2376,0.2376 0.2376,0.900127 v 2.54504 q 0,0.66711 -0.2376,0.9047 -0.23303,0.2376 -0.88643,0.2376 h -3.34008 q -0.66253,0 -0.90013,-0.24217 -0.23303,-0.24216 -0.23303,-0.90013 z m 10.5914,-0.484337 h -1.73629 v 3.500007 h 1.73629 q 1.17429,0 1.65862,-0.41123 0.484344,-0.41123 0.484344,-1.36162 0,-0.91841 -0.493484,-1.3205 -0.49347,-0.406657 -1.64948,-0.406657 z m 0.11423,-0.657957 q 0.66711,0 1.10575,0.0914 0.44321,0.0868 0.74935,0.283287 0.466054,0.30613 0.731074,0.840727 0.26958,0.53459 0.26958,1.16971 0,0.67624 -0.26501,1.21998 -0.26044,0.53916 -0.735644,0.84987 -0.297,0.1919 -0.74021,0.28329 -0.44321,0.0914 -1.11489,0.0914 h -2.65927 v -4.829634 z m 4.902754,4.829634 v -4.829634 h 4.65143 v 0.648827 h -3.84268 v 1.343337 h 2.34856 v 0.63969 h -2.34856 v 1.53525 h 3.87924 v 0.66253 z"
       id="text65"
       style="font-size:26.6667px;line-height:1.25;font-family:'BankGothic Lt BT';-inkscape-font-specification:'BankGothic Lt BT';white-space:pre;fill:#34362e;fill-opacity:1;stroke:#34362e;stroke-width:1.32629;stroke-dasharray:none;stroke-opacity:1"
       aria-label="CHANGE MODE" />
    <g
       id="g73">
      <rect
         style="fill:#6d863b;fill-opacity:1;stroke:#cf0000;stroke-width:0.2;stroke-linecap:round"
         id="rect66"
         width="35.619045"
         height="35.619045"
         x="160.88695"
         y="47.142857"
         ry="6.5198698" />
      <rect
         style="fill:#6d863b;fill-opacity:1;stroke:#cf0000;stroke-width:0.2;stroke-linecap:round"
         id="rect67"
         width="35.619045"
         height="35.619045"
         x="160.88695"
         y="47.142857"
         ry="6.5198698" />
      <text
         xml:space="preserve"
         transform="matrix(0.26458333,0,0,0.26458333,6.945011,11.104141)"
         id="text62-1"
         style="font-style:normal;font-variant:normal;font-weight:normal;font-stretch:normal;font-size:26.6667px;line-height:1.25;font-family:'BankGothic Lt BT';-inkscape-font-specification:'BankGothic Lt BT';white-space:pre;shape-inside:url(#rect63-3);display:inline"><tspan
           x="604.13281"
           y="253.74026"
           id="tspan36">LIGHT</tspan></text>
      <rect
         style="fill:#000000;fill-opacity:1;stroke:none;stroke-width:0.0833039;stroke-linecap:round"
         id="rect11-6-1-60"
         width="1.6970167"
         height="8.7936325"
         x="64.072868"
         y="-183.09328"
         ry="0.31570727"
         transform="rotate(90)" />
    </g>
    <g
       id="g72"
       transform="translate(0,37.041668)">
      <rect
         style="fill:#6d863b;fill-opacity:1;stroke:#cf0000;stroke-width:0.2;stroke-linecap:round"
         id="rect68"
         width="35.619045"
         height="35.619045"
         x="160.88695"
         y="47.142857"
         ry="6.5198698" />
      <rect
         style="fill:#6d863b;fill-opacity:1;stroke:#cf0000;stroke-width:0.2;stroke-linecap:round"
         id="rect69"
         width="35.619045"
         height="35.619045"
         x="160.88695"
         y="47.142857"
         ry="6.5198698" />
      <text
         xml:space="preserve"
         transform="matrix(0.26458333,0,0,0.26458333,6.945011,11.104141)"
         id="text69"
         style="font-style:normal;font-variant:normal;font-weight:normal;font-stretch:normal;font-size:26.6667px;line-height:1.25;font-family:'BankGothic Lt BT';-inkscape-font-specification:'BankGothic Lt BT';white-space:pre;shape-inside:url(#rect72);display:inline"><tspan
           x="604.13281"
           y="253.74026"
           id="tspan37">LIGHT</tspan></text>
      <g
         id="g71"
         transform="matrix(0.65206518,0,0,0.65206518,159.26731,16.73761)"
         style="fill:#000000;fill-opacity:1">
        <rect
           style="fill:#000000;fill-opacity:1;stroke:none;stroke-width:0.127754;stroke-linecap:round"
           id="rect70"
           width="2.6025262"
           height="13.485819"
           x="28.649736"
           y="67.19873"
           ry="0.48416519" />
        <rect
           style="fill:#000000;fill-opacity:1;stroke:none;stroke-width:0.127754;stroke-linecap:round"
           id="rect71"
           width="2.6025262"
           height="13.485819"
           x="72.592827"
           y="-36.539249"
           ry="0.48416519"
           transform="rotate(90)" />
      </g>
    </g>
    <rect
       style="fill:#37a75d;fill-opacity:1;stroke:#449a61;stroke-width:0.2;stroke-linecap:round;stroke-opacity:1"
       id="rect73"
       width="35.619045"
       height="35.619045"
       x="-222.22977"
       y="121.2262"
       ry="6.5198698" />
    <text
       xml:space="preserve"
       transform="matrix(0.26458333,0,0,0.26458333,-146.47064,98.726902)"
       id="text73"
       style="font-style:normal;font-variant:normal;font-weight:normal;font-stretch:normal;font-size:53.3333px;line-height:1.25;font-family:'BankGothic Lt BT';-inkscape-font-specification:'BankGothic Lt BT';white-space:pre;shape-inside:url(#rect75);display:inline"><tspan
         x="-239.93359"
         y="166.1113"
         id="tspan38">A</tspan></text>
    <text
       xml:space="preserve"
       transform="matrix(0.26458333,0,0,0.26458333,-397.1928,81.18013)"
       id="text74"
       style="font-style:normal;font-variant:normal;font-weight:normal;font-stretch:normal;font-size:26.6667px;line-height:1.25;font-family:'BankGothic Lt BT';-inkscape-font-specification:'BankGothic Lt BT';text-align:center;white-space:pre;shape-inside:url(#rect76);display:inline"
       x="48.209698"
       y="0"><tspan
         x="697.58655"
         y="253.74026"
         id="tspan39">AMB
</tspan></text>
    <text
       xml:space="preserve"
       transform="matrix(0.26458333,0,0,0.26458333,-376.17174,86.471797)"
       id="text76"
       style="font-style:normal;font-variant:normal;font-weight:normal;font-stretch:normal;font-size:26.6667px;line-height:1.25;font-family:'BankGothic Lt BT';-inkscape-font-specification:'BankGothic Lt BT';white-space:pre;shape-inside:url(#rect77);display:inline"><tspan
         x="604.13281"
         y="253.74026"
         id="tspan40">LIGHT</tspan></text>
    <text
       xml:space="preserve"
       transform="matrix(0.26458333,0,0,0.26458333,-397.1928,44.138462)"
       id="text4"
       style="font-style:normal;font-variant:normal;font-weight:normal;font-stretch:normal;font-size:26.6667px;line-height:1.25;font-family:'BankGothic Lt BT';-inkscape-font-specification:'BankGothic Lt BT';text-align:center;white-space:pre;shape-inside:url(#rect6);display:inline"
       x="48.209698"
       y="0"><tspan
         x="729.5332"
         y="253.74026"
         id="tspan41">
</tspan></text>
    <g
       id="g7"
       transform="translate(-15.875,-5.2916667)">
      <rect
         style="fill:#37a75d;fill-opacity:1;stroke:#449a61;stroke-width:0.2;stroke-linecap:round;stroke-opacity:1"
         id="rect3"
         width="35.619045"
         height="35.619045"
         x="-222.22977"
         y="84.184525"
         ry="6.5198698" />
      <text
         xml:space="preserve"
         transform="matrix(0.26458333,0,0,0.26458333,-146.47064,61.685234)"
         id="text3"
         style="font-style:normal;font-variant:normal;font-weight:normal;font-stretch:normal;font-size:53.3333px;line-height:1.25;font-family:'BankGothic Lt BT';-inkscape-font-specification:'BankGothic Lt BT';white-space:pre;shape-inside:url(#rect5);display:inline"><tspan
           x="-239.93359"
           y="166.1113"
           id="tspan42">R
</tspan></text>
      <text
         xml:space="preserve"
         transform="matrix(0.26458333,0,0,0.26458333,-381.73382,47.842628)"
         id="text5"
         style="font-style:normal;font-variant:normal;font-weight:normal;font-stretch:normal;font-size:26.6667px;line-height:1.25;font-family:'BankGothic Lt BT';-inkscape-font-specification:'BankGothic Lt BT';white-space:pre;shape-inside:url(#rect7);display:inline"><tspan
           x="604.13281"
           y="253.74026"
           id="tspan43">RESTART</tspan></text>
    </g>
  </g>
</svg>
